<svg width="1096" height="384" viewBox="0 0 1096 384" fill="none" xmlns="http://www.w3.org/2000/svg">
<rect width="1096" height="384" rx="16" fill="url(#paint0_linear_626_1844)"/>
<path d="M1067.63 177.965L1058.27 170.377L1067.63 177.965Z" fill="white"/>
<path d="M1058.27 170.377C1058.34 170.293 1060.51 171.917 1063.08 174.011C1065.65 176.106 1067.7 177.875 1067.62 177.965C1067.55 178.054 1065.38 176.425 1062.82 174.33C1060.26 172.236 1058.2 170.466 1058.27 170.377Z" fill="#E0E0E0"/>
<path d="M983.77 177.954C983.703 177.864 985.657 176.201 988.144 174.235C990.63 172.27 992.697 170.752 992.769 170.842C992.842 170.931 990.882 172.594 988.401 174.56C985.921 176.526 983.843 178.043 983.77 177.954Z" fill="#E0E0E0"/>
<path d="M943.434 313.765C943.434 311.228 945.377 309.391 947.992 309.391C948.622 309.368 949.249 309.484 949.83 309.73C950.41 309.975 950.93 310.345 951.352 310.814L950.338 311.76C950.053 311.441 949.702 311.186 949.31 311.014C948.918 310.842 948.493 310.757 948.065 310.763C947.661 310.746 947.258 310.81 946.879 310.953C946.501 311.095 946.155 311.313 945.863 311.593C945.571 311.872 945.339 312.208 945.18 312.58C945.021 312.952 944.939 313.352 944.939 313.756C944.939 314.161 945.021 314.561 945.18 314.933C945.339 315.305 945.571 315.641 945.863 315.92C946.155 316.2 946.501 316.418 946.879 316.56C947.258 316.703 947.661 316.767 948.065 316.75C948.495 316.757 948.921 316.67 949.314 316.495C949.707 316.32 950.056 316.061 950.338 315.736L951.363 316.71C950.941 317.178 950.421 317.548 949.841 317.794C949.26 318.039 948.633 318.155 948.003 318.133C945.36 318.144 943.434 316.307 943.434 313.765Z" fill="#B36FF3"/>
<path d="M934.793 320.434H924.242V309.884H934.793V320.434ZM924.802 319.874H934.233V310.444H924.802V319.874Z" fill="#843BC8"/>
<path d="M922.232 322.63C921.919 322.394 924.439 318.609 928.32 314.594C932.2 310.578 935.885 307.913 936.16 308.215C936.434 308.518 933.208 311.642 929.395 315.607C925.581 319.572 922.557 322.887 922.232 322.63Z" fill="#B36FF3"/>
<path d="M936.305 322.4C935.963 322.647 933.085 319.147 929.282 315.087C925.48 311.027 922.187 307.913 922.45 307.588C922.714 307.263 926.477 309.94 930.346 314.09C934.216 318.239 936.624 322.199 936.305 322.4Z" fill="#B36FF3"/>
<path d="M864.16 279.353L858.98 278.983L857.787 281.313L855.799 281.173L861.203 271.132L863.096 271.266L867.016 281.968L865 281.828L864.16 279.353ZM863.633 277.796L862.004 273.12L859.764 277.516L863.633 277.796Z" fill="#B36FF3"/>
<path d="M847.242 281.738L834.508 280.837L835.415 268.08L848.144 268.987L847.242 281.738ZM835.107 280.316L846.721 281.145L847.545 269.525L835.93 268.702L835.107 280.316Z" fill="#843BC8"/>
<path d="M831.803 283.39C831.512 283.138 834.956 278.798 840.024 274.251C845.092 269.704 849.762 266.719 849.986 267.033C850.21 267.346 845.994 270.83 841.026 275.332C836.059 279.834 832.111 283.67 831.803 283.39Z" fill="#B36FF3"/>
<path d="M848.967 284.354C848.609 284.578 845.462 280.014 841.167 274.733C836.871 269.452 833.08 265.415 833.36 265.107C833.64 264.799 837.941 268.433 842.32 273.815C846.699 279.196 849.298 284.158 848.967 284.354Z" fill="#B36FF3"/>
<path d="M1079 223.958C1079.49 225.671 1078.44 227.054 1075.86 227.782L1070.88 229.188L1068.08 219.186L1072.77 217.859C1075.17 217.182 1076.74 217.859 1077.19 219.416C1077.33 219.862 1077.35 220.34 1077.23 220.794C1077.11 221.248 1076.87 221.659 1076.53 221.981C1077.1 221.984 1077.66 222.18 1078.11 222.539C1078.56 222.898 1078.87 223.398 1079 223.958ZM1070.32 220.116L1071.11 222.877L1073.73 222.132C1075.02 221.768 1075.62 221.102 1075.36 220.189C1075.11 219.276 1074.24 219.007 1072.96 219.371L1070.32 220.116ZM1077.08 224.299C1076.8 223.302 1075.91 223.073 1074.51 223.47L1071.52 224.322L1072.33 227.206L1075.33 226.354C1076.73 225.957 1077.36 225.302 1077.08 224.299Z" fill="#B36FF3"/>
<path d="M1049.33 236.513L1045.85 224.232L1058.13 220.755L1061.61 233.035L1049.33 236.513ZM1046.53 224.619L1049.7 235.819L1060.9 232.643L1057.72 221.443L1046.53 224.619Z" fill="#843BC8"/>
<path d="M1047.66 239.839C1047.29 239.694 1049.06 234.447 1052.28 228.443C1055.5 222.44 1058.88 218.05 1059.19 218.274C1059.51 218.498 1056.73 223.196 1053.59 229.132C1050.46 235.068 1048.04 239.996 1047.66 239.839Z" fill="#B36FF3"/>
<path d="M1064.13 234.906C1063.86 235.236 1059.35 232.016 1053.52 228.51C1047.68 225.005 1042.74 222.49 1042.91 222.104C1043.08 221.718 1048.36 223.678 1054.27 227.262C1060.18 230.846 1064.37 234.609 1064.13 234.906Z" fill="#B36FF3"/>
<path d="M1077.66 345.36C1077.66 345.439 1022.7 345.506 954.919 345.506C887.142 345.506 832.161 345.411 832.161 345.36C832.161 345.31 887.114 345.215 954.919 345.215C1022.72 345.215 1077.66 345.248 1077.66 345.36Z" fill="black"/>
<path d="M1005.42 147.036H861.606V292.927H1005.42V147.036Z" fill="white"/>
<path d="M1005.42 292.927C1005.42 292.927 1005.42 292.86 1005.42 292.748C1005.42 292.636 1005.42 292.457 1005.42 292.233C1005.42 291.779 1005.42 291.113 1005.42 290.217C1005.42 288.436 1005.42 285.81 1005.39 282.377C1005.39 275.523 1005.35 265.476 1005.33 252.697C1005.3 227.178 1005.25 190.733 1005.2 147.036L1005.45 147.288L861.652 147.327L861.943 147.036C861.943 200.499 861.943 250.58 861.904 292.922L861.652 292.675L965.845 292.799L995.083 292.866L1002.8 292.894H1004.79H1005.29H1005.47H1004.82H1002.86L995.184 292.922L966.008 292.989L861.652 293.112H861.4V292.86C861.4 250.519 861.4 200.46 861.36 146.975V146.683H861.668L1005.47 146.723H1005.72V146.975C1005.67 190.739 1005.62 227.234 1005.59 252.815C1005.56 265.571 1005.54 275.595 1005.53 282.439C1005.53 285.843 1005.53 288.459 1005.49 290.228C1005.49 291.102 1005.49 291.768 1005.49 292.216V292.715C1005.48 292.788 1005.45 292.86 1005.42 292.927Z" fill="#263238"/>
<path d="M872.98 171.043V174.913H872.258V171.648H871.44V171.043H872.98Z" fill="black"/>
<path d="M873.726 174.493C873.726 174.434 873.737 174.375 873.76 174.32C873.783 174.265 873.816 174.215 873.858 174.172C873.901 174.13 873.951 174.097 874.006 174.074C874.061 174.051 874.12 174.04 874.179 174.04C874.239 174.04 874.298 174.051 874.353 174.074C874.408 174.097 874.458 174.13 874.5 174.172C874.542 174.215 874.575 174.265 874.598 174.32C874.621 174.375 874.633 174.434 874.633 174.493C874.633 174.553 874.621 174.612 874.598 174.667C874.575 174.722 874.542 174.772 874.5 174.814C874.458 174.856 874.408 174.889 874.353 174.912C874.298 174.935 874.239 174.947 874.179 174.947C874.12 174.947 874.061 174.935 874.006 174.912C873.951 174.889 873.901 174.856 873.858 174.814C873.816 174.772 873.783 174.722 873.76 174.667C873.737 174.612 873.726 174.553 873.726 174.493Z" fill="black"/>
<path d="M921.202 155.403C921.183 154.987 921.289 154.575 921.506 154.22C921.723 153.866 922.042 153.584 922.42 153.411C922.799 153.239 923.22 153.184 923.63 153.253C924.041 153.323 924.421 153.513 924.722 153.8C925.023 154.087 925.231 154.458 925.319 154.865C925.407 155.271 925.372 155.695 925.218 156.081C925.063 156.467 924.797 156.798 924.452 157.032C924.108 157.265 923.702 157.39 923.286 157.391C923.016 157.404 922.747 157.363 922.495 157.269C922.242 157.175 922.011 157.031 921.816 156.845C921.621 156.659 921.466 156.435 921.361 156.187C921.255 155.939 921.201 155.672 921.202 155.403ZM924.646 155.403C924.646 155.133 924.567 154.87 924.417 154.647C924.268 154.423 924.055 154.248 923.806 154.145C923.558 154.042 923.284 154.015 923.02 154.068C922.756 154.12 922.514 154.25 922.323 154.44C922.133 154.631 922.003 154.873 921.951 155.137C921.898 155.401 921.925 155.675 922.028 155.923C922.131 156.172 922.306 156.384 922.53 156.534C922.753 156.684 923.016 156.763 923.286 156.763C923.465 156.768 923.644 156.736 923.811 156.669C923.978 156.602 924.129 156.502 924.256 156.375C924.383 156.247 924.483 156.095 924.549 155.928C924.615 155.761 924.646 155.582 924.641 155.403H924.646Z" fill="black"/>
<path d="M929.568 153.471V157.34H928.98L926.847 154.72V157.34H926.13V153.471H926.723L928.857 156.08V153.471H929.568Z" fill="black"/>
<path d="M930.61 153.471H931.327V156.73H933.354V157.34H930.61V153.471Z" fill="black"/>
<path d="M933.92 153.471H934.637V157.34H933.92V153.471Z" fill="black"/>
<path d="M939.122 153.471V157.34H938.529L936.401 154.72V157.34H935.689V153.471H936.283L938.411 156.08V153.471H939.122Z" fill="black"/>
<path d="M943.065 156.736V157.34H940.158V153.471H942.958V154.07H940.881V155.078H942.751V155.666H940.881V156.736H943.065Z" fill="black"/>
<path d="M946.172 154.076H944.89V153.471H948.16V154.076H946.878V157.34H946.155L946.172 154.076Z" fill="black"/>
<path d="M951.621 156.736V157.34H948.721V153.471H951.521V154.07H949.415V155.078H951.28V155.666H949.415V156.736H951.621Z" fill="black"/>
<path d="M952.08 156.931L952.332 156.371C952.701 156.646 953.149 156.795 953.609 156.797C954.214 156.797 954.466 156.578 954.466 156.293C954.466 155.458 952.164 156.007 952.164 154.568C952.164 153.941 952.662 153.414 953.726 153.414C954.179 153.406 954.625 153.524 955.014 153.756L954.785 154.316C954.464 154.121 954.097 154.015 953.721 154.008C953.122 154.008 952.881 154.243 952.881 154.534C952.881 155.358 955.171 154.82 955.171 156.242C955.171 156.864 954.667 157.362 953.609 157.362C953.066 157.387 952.53 157.236 952.08 156.931Z" fill="black"/>
<path d="M956.627 154.076H955.345V153.471H958.626V154.076H957.344V157.34H956.627V154.076Z" fill="black"/>
<path d="M890.9 188.045H888.963L888.582 188.941H887.843L889.584 185.071H890.29L892.037 188.941H891.287L890.9 188.045ZM890.66 187.485L889.932 185.805L889.209 187.485H890.66Z" fill="black"/>
<path d="M871.396 157.334C872.265 157.334 872.969 156.63 872.969 155.761C872.969 154.892 872.265 154.187 871.396 154.187C870.527 154.187 869.822 154.892 869.822 155.761C869.822 156.63 870.527 157.334 871.396 157.334Z" fill="black"/>
<path d="M876.161 157.334C877.031 157.334 877.735 156.63 877.735 155.761C877.735 154.892 877.031 154.187 876.161 154.187C875.292 154.187 874.588 154.892 874.588 155.761C874.588 156.63 875.292 157.334 876.161 157.334Z" fill="black"/>
<path d="M880.927 157.334C881.796 157.334 882.501 156.63 882.501 155.761C882.501 154.892 881.796 154.187 880.927 154.187C880.058 154.187 879.354 154.892 879.354 155.761C879.354 156.63 880.058 157.334 880.927 157.334Z" fill="black"/>
<path d="M1005.5 163.545C1005.5 163.623 973.473 163.691 933.965 163.691C894.457 163.691 862.419 163.623 862.419 163.545C862.419 163.467 894.445 163.399 933.965 163.399C973.484 163.399 1005.5 163.467 1005.5 163.545Z" fill="black"/>
<path d="M989.78 174.364C989.78 174.443 964.843 174.51 934.088 174.51C903.333 174.51 878.385 174.443 878.385 174.364C878.385 174.286 903.322 174.219 934.088 174.219C964.854 174.219 989.78 174.28 989.78 174.364Z" fill="black"/>
<path d="M921.37 178.15C921.37 178.228 911.85 178.295 900.09 178.295C888.33 178.295 878.776 178.228 878.776 178.15C878.776 178.071 888.296 178.004 900.09 178.004C911.884 178.004 921.37 178.066 921.37 178.15Z" fill="black"/>
<path d="M884.88 189.551H879.778V184.45H884.88V189.551ZM880.338 188.991H884.32V185.01H880.338V188.991Z" fill="black"/>
<path d="M891.802 197.576C891.802 198.237 891.281 198.623 890.284 198.623H888.363V194.754H890.172C891.102 194.754 891.6 195.146 891.6 195.762C891.606 195.936 891.562 196.109 891.474 196.259C891.386 196.41 891.257 196.533 891.102 196.613C891.31 196.671 891.492 196.798 891.62 196.972C891.747 197.147 891.811 197.36 891.802 197.576ZM889.08 195.336V196.4H890.099C890.592 196.4 890.878 196.226 890.878 195.874C890.878 195.521 890.592 195.314 890.099 195.314L889.08 195.336ZM891.074 197.52C891.074 197.134 890.782 196.96 890.239 196.96H889.08V198.08H890.239C890.782 198.08 891.074 197.89 891.074 197.52Z" fill="black"/>
<path d="M884.88 199.239H879.778V194.16H884.88V199.239ZM880.338 198.679H884.32V194.72H880.338V198.679Z" fill="black"/>
<path d="M888.084 206.374C888.104 205.965 888.244 205.57 888.485 205.24C888.727 204.909 889.061 204.657 889.444 204.514C889.828 204.371 890.246 204.343 890.645 204.435C891.044 204.527 891.407 204.733 891.69 205.03L891.226 205.466C891.095 205.321 890.935 205.206 890.757 205.127C890.578 205.049 890.385 205.01 890.19 205.013C889.829 205.013 889.483 205.156 889.227 205.411C888.972 205.667 888.829 206.013 888.829 206.374C888.829 206.735 888.972 207.081 889.227 207.336C889.483 207.591 889.829 207.734 890.19 207.734C890.385 207.737 890.579 207.698 890.758 207.618C890.937 207.539 891.096 207.422 891.226 207.275L891.69 207.718C891.407 208.014 891.044 208.221 890.645 208.312C890.246 208.404 889.828 208.377 889.444 208.234C889.061 208.09 888.727 207.838 888.485 207.507C888.244 207.177 888.104 206.783 888.084 206.374Z" fill="black"/>
<path d="M884.88 208.922H879.778V203.82H884.88V208.922ZM880.338 208.362H884.32V204.38H880.338V208.362Z" fill="black"/>
<path d="M888.363 214.124H890.043C891.298 214.124 892.154 214.897 892.154 216.056C892.154 217.215 891.298 217.994 890.043 217.994H888.363V214.124ZM890.043 217.383C890.224 217.395 890.406 217.37 890.577 217.308C890.748 217.247 890.904 217.151 891.037 217.027C891.169 216.903 891.275 216.753 891.347 216.587C891.419 216.42 891.457 216.24 891.457 216.059C891.457 215.877 891.419 215.698 891.347 215.531C891.275 215.365 891.169 215.215 891.037 215.09C890.904 214.966 890.748 214.871 890.577 214.809C890.406 214.748 890.224 214.723 890.043 214.734H889.08V217.383H890.043Z" fill="black"/>
<path d="M884.88 218.61H879.778V213.508H884.88V218.61ZM880.338 218.05H884.32V214.068H880.338V218.05Z" fill="black"/>
<path d="M934.082 187.003C934.082 187.082 925.682 187.149 915.288 187.149C904.895 187.149 896.489 187.082 896.489 187.003C896.489 186.925 904.889 186.858 915.288 186.858C925.688 186.858 934.082 186.919 934.082 187.003Z" fill="black"/>
<path d="M985.826 196.686C985.826 196.77 965.823 196.831 941.16 196.831C916.498 196.831 896.489 196.77 896.489 196.686C896.489 196.602 916.487 196.54 941.16 196.54C965.834 196.54 985.826 196.607 985.826 196.686Z" fill="black"/>
<path d="M908.781 216.056C908.781 216.135 906.031 216.202 902.621 216.202C899.211 216.202 896.461 216.135 896.461 216.056C896.461 215.978 899.211 215.911 902.621 215.911C906.031 215.911 908.781 216 908.781 216.056Z" fill="black"/>
<path d="M941.155 206.374C941.155 206.452 931.159 206.519 918.822 206.519C906.485 206.519 896.489 206.452 896.489 206.374C896.489 206.295 906.485 206.228 918.822 206.228C931.159 206.228 941.155 206.29 941.155 206.374Z" fill="black"/>
<path d="M873.121 229.843V230.448H870.265V229.966L871.805 228.51C872.18 228.152 872.247 227.922 872.247 227.71C872.247 227.351 872.001 227.15 871.525 227.15C871.353 227.141 871.182 227.173 871.025 227.243C870.869 227.313 870.731 227.419 870.623 227.553L870.119 227.166C870.297 226.952 870.522 226.782 870.776 226.671C871.031 226.559 871.309 226.508 871.586 226.522C872.426 226.522 872.97 226.948 872.97 227.642C872.964 227.881 872.903 228.115 872.792 228.327C872.681 228.539 872.524 228.722 872.331 228.863L871.295 229.849L873.121 229.843Z" fill="black"/>
<path d="M873.54 230.028C873.54 229.908 873.588 229.792 873.673 229.707C873.758 229.622 873.873 229.574 873.994 229.574C874.114 229.574 874.229 229.622 874.314 229.707C874.399 229.792 874.447 229.908 874.447 230.028C874.447 230.148 874.399 230.264 874.314 230.349C874.229 230.434 874.114 230.482 873.994 230.482C873.873 230.482 873.758 230.434 873.673 230.349C873.588 230.264 873.54 230.148 873.54 230.028Z" fill="black"/>
<path d="M889.545 243.58H887.613L887.232 244.476H886.487L888.229 240.606H888.94L890.687 244.476H889.92L889.545 243.58ZM889.31 243.02L888.582 241.34L887.854 243.02H889.31Z" fill="black"/>
<path d="M988.424 229.899C988.424 229.978 963.487 230.045 932.732 230.045C901.977 230.045 877.04 230 877.04 229.899C877.04 229.798 901.971 229.754 932.738 229.754C963.504 229.754 988.424 229.821 988.424 229.899Z" fill="black"/>
<path d="M920.021 233.685C920.021 233.764 910.501 233.831 898.707 233.831C886.914 233.831 877.394 233.764 877.394 233.685C877.394 233.607 886.914 233.54 898.707 233.54C910.501 233.54 920.021 233.601 920.021 233.685Z" fill="black"/>
<path d="M883.503 245.12H878.401V240.019H883.503V245.12ZM878.961 244.56H882.943V240.579H878.961V244.56Z" fill="black"/>
<path d="M890.447 253.111C890.447 253.772 889.926 254.158 888.935 254.158H887.009V250.289H888.801C889.73 250.289 890.229 250.681 890.229 251.297C890.233 251.471 890.189 251.643 890.101 251.793C890.013 251.944 889.885 252.067 889.73 252.148C889.942 252.202 890.129 252.327 890.26 252.502C890.39 252.678 890.456 252.893 890.447 253.111ZM887.731 250.871V251.941H888.745C889.243 251.941 889.523 251.762 889.523 251.409C889.523 251.056 889.243 250.849 888.745 250.849L887.731 250.871ZM889.725 253.055C889.725 252.669 889.434 252.495 888.89 252.495H887.731V253.615H888.89C889.434 253.598 889.725 253.425 889.725 253.038V253.055Z" fill="black"/>
<path d="M883.503 254.774H878.401V249.673H883.503V254.774ZM878.961 254.214H882.943V250.233H878.961V254.214Z" fill="black"/>
<path d="M886.733 261.92C886.731 261.651 886.783 261.384 886.888 261.136C886.992 260.888 887.146 260.664 887.34 260.478C887.534 260.292 887.764 260.147 888.016 260.054C888.268 259.96 888.537 259.918 888.805 259.932C889.092 259.92 889.378 259.972 889.642 260.083C889.906 260.195 890.143 260.363 890.334 260.576L889.875 261.013C889.744 260.868 889.584 260.753 889.406 260.675C889.227 260.597 889.034 260.557 888.839 260.559C888.478 260.559 888.132 260.703 887.877 260.958C887.622 261.213 887.478 261.559 887.478 261.92C887.478 262.281 887.622 262.627 887.877 262.882C888.132 263.137 888.478 263.281 888.839 263.281C889.035 263.283 889.228 263.243 889.407 263.164C889.586 263.085 889.746 262.968 889.875 262.822L890.334 263.264C890.052 263.561 889.689 263.768 889.29 263.86C888.891 263.953 888.473 263.925 888.09 263.782C887.706 263.639 887.373 263.386 887.132 263.055C886.891 262.724 886.752 262.329 886.733 261.92Z" fill="black"/>
<path d="M883.503 264.457H878.401V259.355H883.503V264.457ZM878.961 263.897H882.943V259.915H878.961V263.897Z" fill="black"/>
<path d="M887.009 269.659H888.689C889.943 269.659 890.8 270.432 890.8 271.597C890.8 272.762 889.943 273.529 888.689 273.529H887.009V269.659ZM888.689 272.924C888.873 272.941 889.059 272.919 889.235 272.861C889.411 272.802 889.572 272.707 889.709 272.582C889.846 272.457 889.955 272.305 890.03 272.135C890.105 271.966 890.144 271.782 890.144 271.597C890.144 271.412 890.105 271.228 890.03 271.059C889.955 270.889 889.846 270.737 889.709 270.612C889.572 270.487 889.411 270.393 889.235 270.334C889.059 270.275 888.873 270.253 888.689 270.27H887.754V272.924H888.689Z" fill="black"/>
<path d="M883.503 274.145H878.401V269.043H883.503V274.145ZM878.961 273.585H882.943V269.603H878.961V273.585Z" fill="black"/>
<path d="M932.732 242.538C932.732 242.617 924.332 242.684 913.933 242.684C903.534 242.684 895.134 242.617 895.134 242.538C895.134 242.46 903.534 242.393 913.933 242.393C924.332 242.393 932.732 242.46 932.732 242.538Z" fill="black"/>
<path d="M984.471 252.221C984.471 252.305 964.473 252.366 939.805 252.366C915.137 252.366 895.134 252.305 895.134 252.221C895.134 252.137 915.131 252.075 939.805 252.075C964.479 252.075 984.471 252.142 984.471 252.221Z" fill="black"/>
<path d="M907.431 271.591C907.431 271.675 904.676 271.737 901.271 271.737C897.867 271.737 895.111 271.675 895.111 271.591C895.111 271.507 897.867 271.446 901.271 271.446C904.676 271.446 907.431 271.513 907.431 271.591Z" fill="black"/>
<path d="M939.805 261.92C939.805 261.999 929.803 262.066 917.472 262.066C905.141 262.066 895.134 261.999 895.134 261.92C895.134 261.842 905.135 261.775 917.472 261.775C929.809 261.775 939.805 261.825 939.805 261.92Z" fill="black"/>
<path d="M975.97 284.88H952.915C951.985 284.88 951.065 284.697 950.207 284.341C949.348 283.985 948.568 283.464 947.911 282.807C947.255 282.149 946.734 281.369 946.379 280.51C946.023 279.651 945.841 278.731 945.842 277.802C945.842 275.926 946.587 274.127 947.913 272.801C949.24 271.474 951.039 270.729 952.915 270.729H975.97C977.846 270.729 979.645 271.474 980.971 272.801C982.297 274.127 983.043 275.926 983.043 277.802C983.043 278.731 982.861 279.651 982.506 280.51C982.151 281.369 981.63 282.149 980.973 282.807C980.316 283.464 979.536 283.985 978.678 284.341C977.819 284.697 976.899 284.88 975.97 284.88Z" fill="#B36FF3"/>
<path d="M958.672 276.122V279.969H957.938L956 277.634V279.969H955.121V276.122H955.855L957.764 278.457V276.122H958.672Z" fill="white"/>
<path d="M962.558 279.28V279.997H959.579V276.15H962.485V276.866H960.481V277.701H962.267V278.39H960.481V279.28H962.558Z" fill="white"/>
<path d="M965.649 279.969L964.719 278.636L963.806 279.969H962.787L964.21 278.014L962.86 276.122H963.868L964.753 277.37L965.621 276.122H966.584L965.24 277.981L966.679 279.969H965.649Z" fill="white"/>
<path d="M967.76 276.85H966.528V276.122H969.888V276.85H968.656V279.969H967.76V276.85Z" fill="white"/>
<path d="M974.755 279.678C974.708 279.677 974.662 279.665 974.621 279.643C974.58 279.62 974.545 279.588 974.52 279.549C974.479 279.487 974.465 279.412 974.479 279.34C974.494 279.267 974.537 279.204 974.598 279.163L976.384 277.97C976.413 277.952 976.436 277.927 976.452 277.898C976.467 277.868 976.475 277.835 976.474 277.802C976.474 277.768 976.465 277.735 976.448 277.705C976.432 277.676 976.408 277.651 976.379 277.634L974.609 276.587C974.547 276.548 974.502 276.487 974.484 276.415C974.467 276.344 974.478 276.269 974.515 276.206C974.553 276.142 974.614 276.096 974.684 276.078C974.755 276.059 974.831 276.069 974.895 276.105L976.664 277.147C976.775 277.213 976.867 277.306 976.932 277.418C976.997 277.529 977.033 277.655 977.036 277.784C977.039 277.913 977.01 278.041 976.951 278.156C976.892 278.27 976.805 278.368 976.698 278.44L974.912 279.627C974.865 279.659 974.811 279.677 974.755 279.678Z" fill="white"/>
<path d="M879.146 199.15C878.978 198.982 880.059 197.621 881.565 196.109C883.072 194.597 884.433 193.522 884.606 193.69C884.78 193.858 883.693 195.224 882.187 196.731C880.681 198.237 879.32 199.323 879.146 199.15Z" fill="#B36FF3"/>
<path d="M885.536 199.682C885.368 199.855 883.917 198.679 882.299 197.061C880.681 195.443 879.499 193.998 879.678 193.824C879.857 193.651 881.302 194.827 882.915 196.445C884.528 198.063 885.709 199.514 885.536 199.682Z" fill="#B36FF3"/>
<path d="M877.92 245.366C877.746 245.193 878.832 243.832 880.339 242.326C881.845 240.819 883.206 239.738 883.38 239.906C883.553 240.074 882.467 241.435 880.955 242.947C879.443 244.459 878.088 245.534 877.92 245.366Z" fill="#B36FF3"/>
<path d="M884.32 245.899C884.146 246.067 882.702 244.896 881.083 243.278C879.465 241.659 878.283 240.209 878.462 240.041C878.642 239.873 880.081 241.043 881.699 242.662C883.318 244.28 884.477 245.725 884.32 245.899Z" fill="#B36FF3"/>
<path d="M986.531 359.102L947.214 346.48C947.109 346.447 946.999 346.434 946.889 346.441L916.649 348.681C911.335 335.801 904.676 319.701 901.647 312.348C901.142 311.142 900.328 310.091 899.288 309.3C898.248 308.508 897.018 308.005 895.722 307.84L862.973 303.561C862.584 303.514 862.189 303.57 861.828 303.723C861.466 303.877 861.152 304.122 860.916 304.435C860.679 304.748 860.529 305.118 860.48 305.507C860.432 305.896 860.486 306.291 860.638 306.653L879.079 349.655C879.323 350.226 879.683 350.739 880.136 351.164C880.589 351.588 881.125 351.913 881.711 352.119L919.169 367.066C920.025 367.407 920.953 367.53 921.868 367.424L924.265 367.161C932.564 366.293 973.545 362.121 986.363 360.777C986.566 360.766 986.759 360.683 986.906 360.543C987.054 360.403 987.146 360.214 987.166 360.012C987.186 359.809 987.134 359.606 987.017 359.439C986.901 359.273 986.728 359.153 986.531 359.102Z" fill="#E0E0E0"/>
<path d="M986.531 359.102C986.662 359.145 986.782 359.217 986.879 359.315C986.976 359.412 987.049 359.531 987.091 359.662C987.142 359.828 987.143 360.005 987.094 360.171C987.046 360.337 986.949 360.486 986.817 360.598C986.64 360.734 986.424 360.809 986.201 360.81L985.462 360.889L976.261 361.863L942.414 365.386L931.214 366.55L925.25 367.166L922.187 367.497C921.126 367.662 920.041 367.536 919.046 367.133L893.991 357.154L887.299 354.482L883.889 353.127L882.17 352.444C881.884 352.321 881.61 352.22 881.302 352.091C881.009 351.961 880.731 351.8 880.473 351.61C879.954 351.226 879.52 350.74 879.196 350.182C878.882 349.622 878.681 349.034 878.423 348.457L876.928 344.979C875.924 342.65 874.914 340.296 873.898 337.918C869.827 328.398 865.605 318.586 861.287 308.518L860.694 307.134C860.443 306.674 860.314 306.158 860.318 305.634C860.351 305.1 860.561 304.592 860.915 304.191C861.269 303.79 861.747 303.519 862.273 303.422C862.402 303.394 862.536 303.422 862.67 303.382L863.057 303.41L863.796 303.511L865.269 303.702L868.203 304.082L879.784 305.6L891.096 307.078L893.896 307.442C894.82 307.582 895.744 307.644 896.696 307.862C898.536 308.336 900.133 309.478 901.176 311.066C901.643 311.856 902.035 312.688 902.346 313.552C902.69 314.388 903.033 315.221 903.377 316.05L905.41 320.983L909.374 330.593C911.962 336.876 914.454 342.913 916.822 348.658L916.699 348.58L946.166 346.402L946.984 346.34C947.132 346.338 947.278 346.365 947.415 346.418L947.802 346.547L949.28 347.04L952.259 347.998L957.876 349.84L967.788 353.038L981.648 357.518L985.288 358.71C986.111 358.979 986.531 359.125 986.531 359.125C986.531 359.125 986.106 359.002 985.277 358.744L981.626 357.59L967.76 353.144L957.842 349.974L952.187 348.16L949.207 347.208L947.678 346.721C947.438 346.622 947.186 346.556 946.928 346.525L946.11 346.586L916.649 348.826H916.565L916.526 348.742C914.151 343.002 911.659 336.982 909.061 330.688L905.09 321.078C904.418 319.451 903.739 317.806 903.052 316.145C902.71 315.316 902.363 314.465 902.022 313.647C901.714 312.802 901.33 311.986 900.874 311.211C899.874 309.687 898.343 308.589 896.578 308.131C895.705 307.918 894.764 307.851 893.846 307.717L891.046 307.353L879.728 305.88L868.147 304.368L865.207 303.987L863.734 303.791C863.263 303.696 862.781 303.666 862.301 303.702C861.84 303.789 861.421 304.027 861.111 304.379C860.801 304.731 860.616 305.176 860.587 305.645C860.584 306.125 860.705 306.598 860.94 307.017L861.55 308.4L874.156 337.806C875.175 340.18 876.183 342.534 877.18 344.867C877.684 346.032 878.177 347.191 878.675 348.345C878.927 348.905 879.146 349.521 879.437 350.025C879.739 350.549 880.147 351.005 880.635 351.363C880.878 351.542 881.139 351.694 881.414 351.817C881.682 351.934 881.974 352.041 882.265 352.158L883.984 352.847L887.389 354.208L894.109 356.879L919.152 366.886C920.109 367.278 921.155 367.4 922.176 367.239L925.245 366.909L931.209 366.304L942.409 365.184L976.266 361.751L985.473 360.827L986.212 360.76C986.426 360.76 986.634 360.691 986.806 360.564C986.933 360.458 987.027 360.318 987.076 360.16C987.124 360.001 987.126 359.833 987.08 359.674C987.027 359.476 986.898 359.307 986.722 359.203C986.598 359.13 986.531 359.108 986.531 359.102Z" fill="#263238"/>
<path d="M935.93 351.318L950.674 357.49L969.048 355.574L953.598 349.196L935.93 351.318Z" fill="#F5F5F5"/>
<path d="M924.814 362.983L953.598 360.385L926.113 349.487L917.276 350.153L921.947 361.421L924.814 362.983Z" fill="#F5F5F5"/>
<path d="M983.68 359.085L983.484 359.119L982.896 359.192L980.656 359.421L972.335 360.233L944.895 362.793L923.324 364.741H923.234L923.2 364.657L918.424 353.004L917.113 349.745C916.968 349.371 916.856 349.086 916.777 348.888C916.736 348.789 916.701 348.688 916.671 348.585C916.671 348.585 916.721 348.681 916.811 348.871L917.18 349.717L918.552 352.948C919.728 355.748 921.408 359.752 923.424 364.568L923.301 364.489L944.867 362.49L972.335 360.015L980.64 359.309L982.88 359.13L983.468 359.091L983.68 359.085Z" fill="black"/>
<path d="M861.59 305.118H861.836L862.564 305.202L865.364 305.566L875.635 306.966C879.969 307.571 885.155 308.299 890.861 309.145L895.251 309.822L896.371 310.013C896.556 310.041 896.752 310.086 896.931 310.13C897.027 310.13 897.127 310.17 897.223 310.198C897.695 310.387 898.124 310.671 898.483 311.032C898.628 311.187 898.744 311.367 898.824 311.564L899.043 312.124C900.213 315.047 901.423 318.077 902.666 321.174C907.616 333.578 912.091 344.811 915.339 352.954C916.946 357.014 918.245 360.306 919.152 362.591C919.589 363.711 919.931 364.607 920.171 365.223C920.283 365.514 920.367 365.738 920.429 365.906C920.461 365.983 920.487 366.061 920.507 366.142C920.468 366.069 920.432 365.994 920.401 365.918L920.115 365.24L919.046 362.636C918.122 360.351 916.806 357.075 915.126 353.026L902.425 321.28C901.182 318.183 899.972 315.154 898.802 312.23L898.583 311.67C898.516 311.505 898.419 311.353 898.298 311.222C898.047 310.95 897.745 310.731 897.407 310.578C897.324 310.538 897.238 310.503 897.15 310.472L896.881 310.405C896.702 310.366 896.523 310.326 896.321 310.298L895.201 310.102L890.811 309.414L875.601 307.174L865.342 305.678L862.542 305.264L861.819 305.146L861.59 305.118Z" fill="black"/>
<path d="M890.536 330.862C891.936 332.738 892.216 334.894 891.169 335.678C890.121 336.462 888.128 335.582 886.728 333.706C885.328 331.83 885.048 329.68 886.095 328.89C887.142 328.101 889.136 328.991 890.536 330.862Z" fill="white"/>
<path d="M1067.71 298.88C1065.83 288.24 1054.07 281.828 1050.18 278.289L1056.02 286.101C1059.01 298.43 1060.14 311.136 1059.38 323.8C1059.3 325.183 1059.45 327.048 1060.44 327.244C1060.8 327.274 1061.15 327.163 1061.43 326.936C1064.88 324.724 1067.12 319.656 1067.61 314.437C1068.11 309.218 1068.56 303.802 1067.71 298.88Z" fill="#B36FF3"/>
<path d="M1059.1 286.963C1058.54 285.894 1058.77 282.483 1055.74 286.045L1055.54 284.712L1036.82 270.32L995.094 272.487C991.09 272.739 985.075 279.672 983.575 282.567C982.343 293.336 982.096 302.895 982.096 302.895C982.096 302.895 980.663 314.868 982.096 320.53C983.53 326.191 985.227 328.235 987.444 332.637C989.067 335.644 991.09 338.417 993.459 340.88L995.407 356L1039 359.92L1058.95 358.8C1058.95 358.8 1057.16 328.98 1057.16 328.454C1057.16 328.207 1059.66 322.45 1062.33 316.341C1066.88 305.886 1064.32 297.054 1059.1 286.963Z" fill="#455A64"/>
<path d="M949.627 341.199C949.845 341.199 952.024 326.477 953.452 323.134C954.796 319.981 983.574 282.562 983.574 282.562L990.35 304.402L987.444 316.083L971.764 334.95L967.334 348.625L949.627 341.199Z" fill="#455A64"/>
<path d="M1064.9 298.152C1062.83 285.054 1052.63 285.625 1052.63 285.625L1042.49 303.27V339.76L993.56 343.994L992.652 356.28C992.652 356.28 1041.4 367.424 1052.66 363.689C1060.12 361.219 1066.41 354.986 1067.1 344.8C1067.79 334.614 1066.97 311.256 1064.9 298.152Z" fill="#455A64"/>
<path d="M971.814 334.927C971.672 334.093 971.485 333.266 971.254 332.452C970.64 330.495 969.533 328.73 968.038 327.326C966.543 325.922 964.711 324.928 962.72 324.438C961.892 324.252 961.054 324.11 960.211 324.013C960.442 323.985 960.675 323.985 960.905 324.013C961.533 324.038 962.157 324.121 962.77 324.259C964.814 324.711 966.697 325.708 968.22 327.144C969.743 328.579 970.849 330.4 971.422 332.413C971.598 333.016 971.718 333.635 971.781 334.261C971.819 334.481 971.831 334.704 971.814 334.927Z" fill="black"/>
<path d="M995.233 343.49C995.303 343.471 995.374 343.458 995.446 343.45L996.068 343.361L998.465 343.042L1007.3 341.922L1036.42 338.382L1042.89 337.61L1042.76 337.75C1043.14 327.826 1043.32 319.079 1043.25 312.813C1043.25 309.682 1043.19 307.168 1043.15 305.438C1043.15 304.586 1043.11 303.92 1043.1 303.455V302.94C1043.1 302.822 1043.1 302.766 1043.1 302.761C1043.1 302.82 1043.1 302.88 1043.1 302.94C1043.1 303.069 1043.1 303.237 1043.13 303.45C1043.13 303.92 1043.19 304.57 1043.23 305.438C1043.3 307.162 1043.38 309.677 1043.42 312.813C1043.52 319.079 1043.39 327.838 1043.02 337.755V337.878H1042.9L1036.43 338.657L1007.28 342.112L998.442 343.126L996.034 343.383L995.407 343.445L995.233 343.49Z" fill="black"/>
<path d="M1067.76 343.49C1067.77 343.564 1067.77 343.639 1067.76 343.713C1067.76 343.87 1067.76 344.089 1067.73 344.363C1067.68 345.198 1067.59 346.03 1067.45 346.855C1067.23 348.164 1066.91 349.454 1066.49 350.713C1065.92 352.377 1065.15 353.968 1064.2 355.451C1063.05 357.257 1061.6 358.852 1059.91 360.166C1057.96 361.675 1055.72 362.747 1053.32 363.308C1052.03 363.618 1050.72 363.837 1049.4 363.963C1048.03 364.086 1046.65 364.139 1045.27 364.12C1042.38 364.062 1039.49 363.792 1036.64 363.313L1020.11 360.597L1012.91 359.399L1006.63 358.24C1002.8 357.523 999.703 356.98 997.552 356.655L995.071 356.291L994.427 356.201C994.353 356.195 994.28 356.18 994.209 356.157H994.427L995.077 356.224C995.637 356.285 996.488 356.381 997.569 356.532C999.725 356.823 1002.83 357.338 1006.67 358.027L1012.94 359.147L1020.15 360.317L1036.67 363.017C1039.52 363.501 1042.39 363.776 1045.28 363.84C1046.68 363.84 1048.04 363.801 1049.38 363.694C1050.69 363.574 1051.98 363.361 1053.26 363.056C1055.62 362.509 1057.84 361.458 1059.76 359.976C1061.44 358.686 1062.88 357.12 1064.03 355.345C1064.98 353.879 1065.75 352.308 1066.33 350.663C1066.76 349.416 1067.09 348.14 1067.33 346.844C1067.52 345.774 1067.63 344.934 1067.67 344.363L1067.74 343.713C1067.74 343.638 1067.75 343.563 1067.76 343.49Z" fill="black"/>
<path d="M993.912 344.391C993.889 344.316 993.874 344.239 993.867 344.162C993.839 343.988 993.8 343.758 993.761 343.478C993.671 342.851 993.542 341.978 993.386 340.869V340.908L989.678 336.803C988.956 335.773 988.303 334.695 987.724 333.578C987.077 332.305 986.505 330.996 986.01 329.658C984.918 326.631 984.166 323.493 983.77 320.3C983.38 316.844 983.299 313.36 983.53 309.89C983.703 306.698 984.034 303.83 984.347 301.434C984.661 299.037 984.958 297.105 985.17 295.766L985.422 294.232C985.45 294.07 985.473 293.941 985.495 293.834C985.5 293.788 985.511 293.743 985.529 293.7C985.534 293.745 985.534 293.79 985.529 293.834C985.529 293.946 985.529 294.075 985.484 294.238C985.434 294.618 985.372 295.134 985.288 295.783C985.109 297.122 984.846 299.059 984.554 301.462C984.263 303.864 984 306.72 983.826 309.912C983.613 313.364 983.699 316.829 984.084 320.266C984.474 323.44 985.21 326.56 986.279 329.574C986.763 330.899 987.324 332.195 987.959 333.454C988.526 334.566 989.164 335.639 989.869 336.669L993.526 340.824L993.828 343.439C993.856 343.725 993.878 343.954 993.901 344.128C993.92 344.214 993.924 344.303 993.912 344.391Z" fill="black"/>
<path d="M1049.94 345.752C1049.57 345.342 1049.23 344.906 1048.93 344.447C1048.32 343.624 1047.46 342.504 1046.46 341.311C1045.45 340.118 1044.51 339.071 1043.81 338.332C1043.41 337.949 1043.03 337.537 1042.69 337.1C1043.14 337.416 1043.56 337.781 1043.94 338.186C1044.91 339.116 1045.82 340.097 1046.67 341.126C1047.53 342.149 1048.34 343.217 1049.08 344.324C1049.42 344.77 1049.7 345.248 1049.94 345.752Z" fill="black"/>
<path d="M961.6 342.997C961.186 340.606 959.008 338.741 959.008 338.741C959.008 338.741 957.966 335.829 956.409 335.062C954.852 334.294 953.609 335.829 952.254 335.414C950.899 335 947.992 334.894 947.057 335.414C946.122 335.935 944.98 338.842 944.98 338.842C944.037 338.88 943.114 339.128 942.28 339.57C941.573 339.935 940.962 340.46 940.494 341.104C940.088 340.946 939.644 340.915 939.22 341.015C938.796 341.115 938.412 341.341 938.12 341.664C937.551 342.328 937.126 343.102 936.871 343.938L936.132 345.92C935.989 346.222 935.924 346.555 935.941 346.889C935.998 347.163 936.147 347.41 936.362 347.589C936.578 347.768 936.848 347.869 937.128 347.874C937.413 347.876 937.695 347.817 937.955 347.702C938.216 347.587 938.449 347.419 938.64 347.208C939.022 346.832 939.358 346.413 939.643 345.959L939.828 347.258C939.828 347.258 940.136 349.314 941.799 349.437C942.947 349.526 944.19 348.194 944.19 348.194L947.096 347.88L947.511 350.786C947.702 351.346 948.068 351.83 948.555 352.167C949.042 352.504 949.624 352.675 950.216 352.657C951.257 352.657 952.601 350.893 952.601 350.893L955.306 351.929C955.306 351.929 958.42 354.113 959.876 353.385C960.283 353.179 960.608 352.84 960.797 352.425C960.986 352.01 961.029 351.542 960.917 351.1C961.539 350.395 962.03 349.586 962.368 348.709C962.76 347.466 962.037 345.388 961.6 342.997Z" fill="#FFBE9D"/>
<path d="M939.76 346.76C939.641 345.732 939.677 344.692 939.866 343.674C939.963 342.645 940.216 341.637 940.616 340.684C940.695 340.684 940.387 342.045 940.152 343.719C939.916 345.394 939.866 346.76 939.76 346.76Z" fill="#EB996E"/>
<path d="M944.302 344.027C944.479 344.734 944.561 345.46 944.548 346.189C944.608 346.715 944.555 347.247 944.392 347.751C944.229 348.143 944 348.311 943.983 348.266C943.966 348.222 944.1 348.048 944.196 347.706C944.292 347.218 944.312 346.717 944.257 346.222C944.172 345.492 944.187 344.753 944.302 344.027Z" fill="#EB996E"/>
<path d="M946.24 342.79C946.296 342.846 945.915 343.349 945.383 343.865C944.851 344.38 944.381 344.794 944.319 344.738C944.257 344.682 944.644 344.178 945.176 343.663C945.708 343.148 946.184 342.734 946.24 342.79Z" fill="#EB996E"/>
<path d="M946.626 337.201C946.689 337.725 946.711 338.253 946.693 338.78C946.693 339.76 946.732 341.104 946.811 342.588C946.889 344.072 947.007 345.416 947.091 346.39C947.17 346.913 947.204 347.441 947.191 347.969C947.037 347.462 946.935 346.941 946.889 346.413C946.749 345.444 946.603 344.1 946.519 342.605C946.435 341.109 946.447 339.76 946.486 338.78C946.478 338.25 946.525 337.721 946.626 337.201Z" fill="#EB996E"/>
<path d="M957.523 338.315C957.523 338.315 957.4 338.595 957.204 339.099C956.931 339.813 956.714 340.547 956.555 341.294C956.454 341.776 956.347 342.297 956.23 342.851C956.119 343.458 955.954 344.054 955.737 344.632C955.495 345.285 955.088 345.864 954.555 346.312C954.265 346.564 953.918 346.744 953.544 346.836C953.17 346.929 952.78 346.931 952.405 346.844C952.015 346.756 951.663 346.548 951.397 346.25C951.152 345.954 950.995 345.595 950.943 345.214C950.864 344.534 950.851 343.847 950.904 343.165C950.968 342.019 951.144 340.882 951.431 339.771C951.623 339.022 951.87 338.288 952.17 337.576C952.276 337.324 952.36 337.133 952.427 337.016C952.456 336.948 952.494 336.884 952.539 336.825C952.47 337.098 952.382 337.365 952.276 337.626C952.019 338.347 951.804 339.082 951.632 339.827C951.378 340.931 951.224 342.055 951.173 343.187C951.129 343.848 951.145 344.512 951.223 345.169C951.269 345.499 951.405 345.809 951.615 346.065C951.844 346.316 952.142 346.492 952.472 346.569C952.805 346.646 953.15 346.643 953.481 346.56C953.812 346.477 954.119 346.317 954.376 346.093C954.876 345.674 955.261 345.134 955.496 344.525C955.848 343.447 956.138 342.35 956.364 341.238C956.54 340.486 956.788 339.753 957.103 339.049C957.191 338.856 957.29 338.669 957.4 338.489C957.467 338.371 957.512 338.309 957.523 338.315Z" fill="#EB996E"/>
<path d="M958.621 339.575C958.542 340.196 958.268 340.776 957.838 341.231C957.408 341.686 956.845 341.993 956.229 342.106C956.72 341.783 957.186 341.423 957.624 341.031C957.992 340.571 958.325 340.085 958.621 339.575Z" fill="#EB996E"/>
<path d="M952.606 346.816C952.79 347.593 952.838 348.397 952.746 349.19C952.717 349.897 952.617 350.598 952.45 351.285V351.324C952.429 351.335 952.405 351.341 952.382 351.341C952.358 351.342 952.335 351.337 952.313 351.328C952.292 351.318 952.273 351.303 952.257 351.285C952.242 351.267 952.231 351.246 952.226 351.223C952.226 351.167 952.226 351.145 952.226 351.145C952.226 351.145 952.226 351.173 952.265 351.195C952.304 351.218 952.343 351.24 952.36 351.195L952.326 351.24C952.326 350.859 952.41 350.064 952.461 349.146C952.455 348.367 952.503 347.588 952.606 346.816Z" fill="#EB996E"/>
<path d="M959.197 344.498C958.981 344.854 958.726 345.184 958.436 345.483C957.794 346.23 957.231 347.04 956.756 347.902C956.283 348.763 956.015 349.721 955.972 350.702C955.972 351.458 956.1 351.918 956.05 351.929C955.854 351.55 955.756 351.129 955.764 350.702C955.748 349.675 956.001 348.661 956.498 347.762C956.991 346.878 957.602 346.064 958.312 345.343C958.57 345.025 958.868 344.741 959.197 344.498Z" fill="#EB996E"/>
<path d="M958.05 349.661C957.875 349.031 957.904 348.362 958.133 347.75C958.363 347.138 958.781 346.615 959.327 346.256C961.281 344.867 967.133 341.216 967.256 341.216C967.38 341.216 974.128 338.976 976.967 338.685C979.806 338.394 992.232 344.565 992.232 344.565C992.232 344.565 995.116 348.72 994.652 352.707C994.187 356.694 991.588 356.924 991.588 356.924L987.982 356.045L984.264 355.334C984.264 355.334 976.037 357.624 974.744 357.204C973.45 356.784 973.002 355.378 974.402 354.617C975.802 353.855 979.828 352.662 979.828 352.662L982.925 351.352L972.845 352.791C972.845 352.791 964.322 354.471 963.325 354.236C962.328 354.001 962.177 353.256 962.093 352.556C962.093 352.556 958.66 354.236 957.641 353.318C956.622 352.399 956.174 350.4 958.05 349.661Z" fill="#FFBE9D"/>
<path d="M979.806 347.208C979.556 347.248 979.303 347.261 979.05 347.247C978.568 347.247 977.869 347.247 977.006 347.303C976 347.349 975.001 347.489 974.021 347.723C973.444 347.87 972.881 348.071 972.341 348.322C971.781 348.58 971.221 348.882 970.661 349.218C970.09 349.545 969.495 349.828 968.88 350.064C968.306 350.276 967.705 350.406 967.094 350.45C966.088 350.451 965.085 350.563 964.104 350.786C963.463 350.99 962.898 351.38 962.48 351.906C962.338 352.111 962.213 352.326 962.104 352.55C962.104 352.55 962.104 352.478 962.138 352.354C962.196 352.174 962.279 352.002 962.384 351.845C962.788 351.263 963.367 350.826 964.036 350.596C965.028 350.337 966.047 350.199 967.072 350.187C968.291 350.045 969.462 349.629 970.499 348.972C971.059 348.653 971.619 348.328 972.213 348.065C972.765 347.812 973.341 347.614 973.932 347.471C974.929 347.238 975.949 347.116 976.973 347.107C977.846 347.107 978.546 347.107 979.033 347.141C979.292 347.139 979.551 347.161 979.806 347.208Z" fill="#EB996E"/>
<path d="M976.76 342.958C976.702 342.996 976.64 343.028 976.575 343.053C976.457 343.109 976.272 343.182 976.015 343.266C975.328 343.477 974.626 343.638 973.915 343.747C973.024 343.904 971.949 344.022 970.807 344.307C969.576 344.679 968.393 345.196 967.284 345.847C965.218 346.997 963.06 347.975 960.833 348.77C959.982 349.073 959.282 349.297 958.795 349.442C958.548 349.532 958.293 349.597 958.033 349.638C958.265 349.514 958.509 349.413 958.761 349.336L960.76 348.574C962.955 347.728 965.088 346.731 967.144 345.59C968.274 344.928 969.482 344.408 970.74 344.044C971.778 343.809 972.829 343.634 973.887 343.518C974.592 343.428 975.291 343.299 975.981 343.131C976.237 343.059 976.497 343.001 976.76 342.958Z" fill="#EB996E"/>
<path d="M984.941 345.36C984.867 345.141 984.812 344.916 984.778 344.688C984.644 344.164 984.386 343.68 984.025 343.278C983.665 342.875 983.212 342.565 982.706 342.375C982.483 342.315 982.266 342.236 982.057 342.14C982.057 342.106 982.337 342.073 982.773 342.179C983.341 342.332 983.852 342.645 984.246 343.081C984.637 343.519 984.892 344.062 984.98 344.643C985.039 344.881 985.025 345.13 984.941 345.36Z" fill="#EB996E"/>
<path d="M989.6 351.649C989.59 351.334 989.562 351.02 989.516 350.708C989.325 349.98 988.895 349.337 988.296 348.882C987.678 348.434 986.996 348.081 986.274 347.835C985.959 347.752 985.658 347.626 985.378 347.46C985.705 347.464 986.029 347.525 986.336 347.639C987.108 347.838 987.836 348.182 988.48 348.653C989.134 349.146 989.576 349.868 989.718 350.674C989.799 351.003 989.757 351.349 989.6 351.649Z" fill="#EB996E"/>
<path d="M962.126 352.545C961.984 352.672 961.818 352.771 961.639 352.836C961.171 353.056 960.688 353.244 960.194 353.396C959.854 353.515 959.506 353.61 959.153 353.682C958.726 353.738 958.293 353.694 957.887 353.553C957.658 353.469 957.448 353.338 957.273 353.168C957.097 352.998 956.959 352.794 956.868 352.567C956.636 352.107 956.543 351.59 956.599 351.078C956.657 350.691 956.857 350.34 957.159 350.092C957.416 349.866 957.705 349.677 958.016 349.532L957.943 349.7C957.715 349.006 957.767 348.25 958.089 347.594C958.355 347.103 958.715 346.667 959.147 346.312C959.424 346.081 959.72 345.873 960.032 345.69C960.139 345.613 960.258 345.555 960.385 345.517C960.413 345.556 959.931 345.836 959.265 346.441C958.871 346.8 958.545 347.227 958.301 347.701C958.025 348.306 957.993 348.994 958.212 349.622L958.245 349.728L958.139 349.784C957.613 350.058 956.98 350.462 956.918 351.122C956.871 351.578 956.953 352.038 957.153 352.45C957.228 352.643 957.342 352.819 957.488 352.966C957.635 353.112 957.811 353.227 958.005 353.301C958.362 353.432 958.745 353.482 959.125 353.446C959.468 353.385 959.809 353.304 960.144 353.206C960.765 353.032 961.264 352.858 961.6 352.735C961.768 352.653 961.944 352.59 962.126 352.545Z" fill="#EB996E"/>
<path d="M1005.52 239.262C1004.3 227.133 1001.73 215.059 1002.26 202.862L992.288 209.09C992.787 213.917 988.447 217.658 985.932 221.802C984.428 224.333 983.545 227.186 983.357 230.125C983.169 233.064 983.682 236.005 984.852 238.708C985.748 240.724 987.019 242.628 987.349 244.812C987.909 248.497 985.63 252.243 986.47 255.878C987.433 260.061 992.552 262.357 996.679 261.181C1000.81 260.005 1003.76 256.141 1004.98 252.047C1006.19 247.954 1005.94 243.535 1005.52 239.262Z" fill="#263238"/>
<path d="M992.826 207.04C993.378 204.08 994.707 201.321 996.676 199.044C998.646 196.767 1001.19 195.054 1004.03 194.082C1006.88 193.11 1009.94 192.913 1012.89 193.511C1015.84 194.109 1018.58 195.481 1020.83 197.486C1022.65 199.116 1024.14 201.149 1026.24 202.386C1028.62 203.781 1028.93 203.31 1031.55 204.156C1034.17 205.002 1039.31 211.845 1039.39 214.6L1041.43 226.584C1041.5 229.412 1037.97 231.232 1035.23 230.504C1032.5 229.776 1030.58 227.362 1029.01 224.999C1027.44 222.636 1025.95 220.077 1023.54 218.593C1019.53 216.134 1014.39 217.389 1009.86 218.593C1005.32 219.797 1000.05 220.833 996.276 218.033C993.05 215.597 992.087 211.005 992.826 207.04Z" fill="#263238"/>
<path d="M991.381 224.4C991.381 216.515 996.023 206.564 1003.9 206.922L1028.7 211.626C1029.86 211.677 1030.95 212.16 1031.77 212.98C1032.58 213.799 1033.06 214.895 1033.11 216.05L1034.04 275.13H1034.21C1034.21 275.13 1025.59 296.802 1009.13 292.737C1005.86 291.93 1008.28 283.805 1007.41 280.243L1007.25 280.277C1007.22 279.845 1007.19 279.448 1007.16 279.039C1006.67 276.374 1006.47 273.665 1006.56 270.958C1006.21 266.204 1006.1 264.238 1006.1 264.3C1006.1 264.361 995.961 263.236 993.094 250.272C991.672 243.854 991.353 233.164 991.381 224.4Z" fill="#FFBE9D"/>
<path d="M995.76 234.715C995.782 235.153 995.974 235.565 996.295 235.863C996.616 236.161 997.041 236.322 997.479 236.311C997.694 236.316 997.907 236.277 998.107 236.198C998.307 236.118 998.488 235.999 998.641 235.848C998.794 235.698 998.915 235.518 998.998 235.319C999.08 235.121 999.121 234.908 999.12 234.693C999.098 234.255 998.906 233.843 998.585 233.545C998.264 233.247 997.839 233.086 997.401 233.097C997.186 233.092 996.972 233.131 996.773 233.21C996.573 233.29 996.391 233.408 996.238 233.559C996.085 233.71 995.964 233.89 995.882 234.089C995.8 234.287 995.758 234.5 995.76 234.715Z" fill="#263238"/>
<path d="M994.029 229.815C994.248 230.022 995.463 229.003 997.272 228.902C999.081 228.802 1000.46 229.619 1000.63 229.39C1000.73 229.283 1000.49 228.902 999.887 228.516C999.072 228.02 998.123 227.789 997.171 227.855C996.24 227.922 995.355 228.28 994.64 228.88C994.08 229.317 993.917 229.726 994.029 229.815Z" fill="#263238"/>
<path d="M1012.06 233.802C1012.08 234.24 1012.27 234.652 1012.59 234.95C1012.91 235.248 1013.34 235.409 1013.77 235.398C1013.99 235.403 1014.2 235.364 1014.4 235.285C1014.6 235.205 1014.78 235.087 1014.94 234.936C1015.09 234.785 1015.21 234.605 1015.29 234.406C1015.38 234.208 1015.42 233.995 1015.42 233.78C1015.39 233.339 1015.2 232.925 1014.87 232.626C1014.55 232.327 1014.12 232.169 1013.68 232.184C1013.47 232.182 1013.25 232.222 1013.06 232.302C1012.86 232.383 1012.68 232.502 1012.53 232.653C1012.38 232.803 1012.26 232.982 1012.18 233.18C1012.1 233.377 1012.05 233.589 1012.06 233.802Z" fill="#263238"/>
<path d="M1011.81 229.087C1012.03 229.289 1013.24 228.275 1015.05 228.169C1016.86 228.062 1018.24 228.891 1018.41 228.656C1018.5 228.55 1018.27 228.169 1017.67 227.782C1016.85 227.289 1015.9 227.058 1014.95 227.122C1014.01 227.178 1013.11 227.529 1012.39 228.124C1011.87 228.583 1011.7 228.992 1011.81 229.087Z" fill="#263238"/>
<path d="M1006.06 242.88C1006.06 242.774 1004.94 242.65 1003.09 242.527C1002.63 242.527 1002.18 242.438 1002.09 242.13C1002.02 241.655 1002.1 241.17 1002.31 240.741C1002.68 239.621 1003.06 238.406 1003.47 237.151C1005.06 232.033 1006.18 227.838 1005.97 227.777C1005.77 227.715 1004.29 231.809 1002.72 236.922L1001.62 240.539C1001.36 241.111 1001.32 241.757 1001.49 242.359C1001.57 242.519 1001.68 242.659 1001.82 242.769C1001.96 242.879 1002.12 242.955 1002.3 242.992C1002.55 243.046 1002.82 243.067 1003.08 243.054C1004.92 243.042 1006.06 242.981 1006.06 242.88Z" fill="#263238"/>
<path d="M1006.1 264.334C1012.27 264.054 1018.24 262.069 1023.35 258.599C1023.35 258.599 1019.47 267.979 1006.3 267.559L1006.1 264.334Z" fill="#EB996E"/>
<path d="M1007.08 247.186C1007.4 246.732 1007.83 246.367 1008.33 246.125C1008.82 245.883 1009.38 245.772 1009.93 245.803C1010.33 245.813 1010.72 245.905 1011.09 246.072C1011.45 246.24 1011.78 246.48 1012.05 246.778C1012.31 247.064 1012.47 247.423 1012.52 247.807C1012.57 248.19 1012.5 248.58 1012.32 248.922C1012.05 249.264 1011.68 249.518 1011.27 249.65C1010.85 249.783 1010.41 249.789 1009.99 249.667C1009.12 249.417 1008.3 248.994 1007.6 248.424C1007.38 248.294 1007.19 248.122 1007.04 247.92C1006.97 247.824 1006.92 247.71 1006.92 247.59C1006.91 247.47 1006.94 247.351 1007 247.248" fill="#EB996E"/>
<path d="M1011.44 243.81C1011.14 243.81 1011.26 245.77 1009.66 247.259C1008.07 248.749 1005.97 248.665 1005.97 248.939C1005.97 249.062 1006.46 249.292 1007.34 249.264C1008.49 249.212 1009.59 248.756 1010.43 247.976C1011.24 247.226 1011.73 246.19 1011.79 245.086C1011.83 244.263 1011.58 243.787 1011.44 243.81Z" fill="#263238"/>
<path d="M1010.94 222.238C1011.15 222.72 1012.94 222.378 1015.07 222.507C1017.21 222.636 1018.96 223.106 1019.21 222.647C1019.32 222.429 1019 221.986 1018.28 221.527C1017.33 221 1016.26 220.697 1015.17 220.643C1014.07 220.588 1012.98 220.784 1011.98 221.214C1011.22 221.6 1010.88 222.009 1010.94 222.238Z" fill="#263238"/>
<path d="M994.377 224.546C994.719 224.938 995.939 224.439 997.435 224.327C998.93 224.215 1000.23 224.439 1000.48 223.991C1000.6 223.773 1000.37 223.375 999.792 223.022C999.021 222.599 998.141 222.416 997.265 222.496C996.39 222.575 995.557 222.915 994.876 223.47C994.372 223.924 994.226 224.355 994.377 224.546Z" fill="#263238"/>
<path d="M1004.12 203.551L1005.14 202.062C1012.75 202.456 1020.28 203.884 1027.51 206.306C1030.4 207.275 1033.34 208.468 1035.41 210.702C1038.26 213.771 1038.96 218.206 1039.52 222.362C1041.66 238.17 1043.63 254.472 1039.58 269.906C1038.26 268.046 1035.85 267.324 1033.59 267.027C1031.33 266.73 1028.97 266.742 1026.87 265.829C1025.73 265.306 1024.71 264.551 1023.88 263.612C1023.05 262.673 1022.42 261.57 1022.04 260.374C1021.29 257.962 1021.42 255.363 1022.39 253.033C1023.45 250.44 1025.46 247.875 1024.76 245.193C1024.03 242.354 1020.63 240.914 1019.68 238.142C1018.04 233.349 1024.61 228.544 1022.92 223.767C1022.29 222.003 1020.65 220.794 1018.92 220.066C1017.2 219.338 1015.34 218.985 1013.6 218.307C1010.7 217.107 1008.24 215.051 1006.55 212.413C1004.85 209.776 1004.01 206.684 1004.12 203.551Z" fill="#263238"/>
<path d="M1042.86 211.363C1034.72 199.95 1029.2 198.567 1021.54 198.142L1032.18 221.998C1033.78 225.839 1035.97 230.498 1036.32 234.637C1036.72 239.548 1035.02 243.658 1032.74 248.021C1030 253.262 1027 258.258 1022.3 261.842C1017.61 265.426 1007.14 269.934 1001.71 267.61L1009.29 271.849L1027.39 271.916L1048.47 272C1048.47 272 1050.94 269.838 1053.1 264.261C1058.54 250.289 1051.94 224.092 1042.86 211.363Z" fill="#B36FF3"/>
<path d="M1057.88 285.697C1057.88 285.697 1053.34 276.39 1047.42 271.272C1041.5 266.153 1037.87 266.204 1029.42 266.921C1020.98 267.637 1009.16 268.97 1006.36 268.259L1006.1 264.339C1004.71 264.199 999.014 261.427 997.905 259.753C995.788 261.92 994.864 264.233 995.346 266.691L993.962 267.212C991.922 267.958 990.228 269.43 989.203 271.346C988.179 273.262 987.895 275.488 988.407 277.6C988.934 279.616 990.205 280.853 992.758 281.296C1002.89 283.049 1029.99 275.724 1038.15 275.696C1046.31 275.668 1057.88 285.697 1057.88 285.697Z" fill="#B36FF3"/>
<path d="M991.84 281.19C992.078 281.183 992.315 281.196 992.551 281.229C993.01 281.274 993.671 281.346 994.561 281.408C997.032 281.6 999.512 281.642 1001.99 281.531C1005.65 281.342 1009.3 280.848 1012.88 280.053C1014.91 279.61 1017.02 279.073 1019.19 278.446L1025.88 276.379C1030.46 274.985 1035.06 274.033 1039.27 274.447C1042.97 274.786 1046.56 275.933 1049.77 277.807C1051.93 279.072 1053.88 280.66 1055.56 282.517C1056.01 283.018 1056.44 283.546 1056.83 284.096C1056.98 284.272 1057.11 284.46 1057.23 284.656C1057.05 284.499 1056.9 284.323 1056.76 284.13C1056.48 283.766 1056.02 283.256 1055.42 282.618C1051.15 278.141 1045.39 275.374 1039.23 274.834C1035.11 274.453 1030.58 275.394 1026.01 276.782C1023.72 277.471 1021.5 278.205 1019.32 278.838C1017.14 279.47 1015.02 279.997 1012.97 280.428C1009.36 281.211 1005.69 281.676 1002 281.817C999.51 281.9 997.02 281.808 994.545 281.542C993.671 281.453 992.993 281.352 992.54 281.279C992.304 281.269 992.07 281.239 991.84 281.19Z" fill="#263238"/>
<path d="M1058.36 282.64C1048.14 269.345 1028.53 264.266 1013.13 270.919L996.891 274.363C992.607 275.102 985.736 276.497 985.411 280.467C985.114 284.672 986.03 288.874 988.049 292.574C991.823 299.149 989.773 307.957 993.548 314.532C995.329 317.64 997.149 320.793 999.747 323.262C1002.35 325.732 1005.87 327.462 1009.44 327.076C1013.4 326.65 1016.65 323.755 1019.17 320.664C1024.59 314.005 1027.98 305.919 1033.06 298.997C1038.14 292.076 1044.13 286.98 1054.81 286.325C1056.74 286.201 1062.27 288.783 1062.27 288.783C1062.43 287.999 1058.85 283.261 1058.36 282.64Z" fill="#B36FF3"/>
<g opacity="0.3">
<path d="M1036.51 274.733C1029.44 274.733 1022.51 278.126 1015.66 279.638C988.133 285.698 988.133 275.315 988.133 275.315C987.27 280.193 991.851 282.433 996.673 283.553C1005.88 285.681 1015.71 286.823 1022.35 284.701C1027.71 283.021 1033.3 281.772 1038.7 280.221C1044.1 278.67 1051.89 279.263 1055.98 283.105C1052.32 277.085 1043.57 274.716 1036.51 274.733Z" fill="black"/>
</g>
<g opacity="0.3">
<path d="M1000.73 273.988C1001.06 274.709 1001.54 275.351 1002.14 275.87C1002.73 276.388 1003.44 276.772 1004.2 276.995C1005.72 277.434 1007.32 277.571 1008.9 277.398C1014.65 277.006 1020.19 275.085 1025.64 273.181C1021.28 273.03 1017.06 274.548 1012.79 275.421C1008.52 276.295 1003.7 276.351 1000.23 273.741" fill="black"/>
</g>
<path d="M1059.75 286.901C1059.75 286.901 1059.7 286.862 1059.62 286.778L1059.28 286.386C1058.98 286.033 1058.53 285.541 1057.93 284.913C1056.24 283.139 1054.2 281.738 1051.94 280.797C1050.36 280.202 1048.71 279.844 1047.02 279.733C1045.09 279.577 1043.15 279.639 1041.24 279.918C1037.17 280.478 1032.88 281.906 1028.32 283.205C1023.76 284.505 1019.41 285.86 1015.27 286.078C1011.62 286.236 1007.97 285.974 1004.38 285.3C1001.32 284.74 998.885 284.09 997.199 283.67L995.262 283.177L994.763 283.043L994.59 282.987C994.649 282.978 994.71 282.978 994.769 282.987L995.279 283.093L997.227 283.536C998.907 283.922 1001.36 284.533 1004.42 285.07C1007.99 285.716 1011.63 285.956 1015.25 285.787C1019.35 285.557 1023.7 284.264 1028.24 282.903C1032.78 281.542 1037.1 280.17 1041.2 279.627C1043.14 279.354 1045.1 279.301 1047.05 279.47C1049.13 279.59 1051.18 280.125 1053.06 281.042C1054.94 281.959 1056.62 283.241 1058 284.813C1058.6 285.457 1059.04 285.961 1059.32 286.325L1059.64 286.733L1059.75 286.901Z" fill="black"/>
<path d="M1049.46 273.204C1049.42 273.176 1049.38 273.144 1049.35 273.109L1049.02 272.812C1048.75 272.543 1048.32 272.168 1047.76 271.692C1046.14 270.388 1044.38 269.29 1042.49 268.421C1039.7 267.141 1036.73 266.288 1033.68 265.89C1029.94 265.426 1026.16 265.436 1022.43 265.918C1018.69 266.412 1014.98 267.104 1011.32 267.99C1009.7 268.371 1008.03 268.503 1006.37 268.382C1004.91 268.273 1003.51 267.766 1002.32 266.915C1001.37 266.19 1000.55 265.298 999.916 264.283C999.435 263.525 999.017 262.729 998.667 261.903C998.381 261.225 998.191 260.682 998.068 260.313L997.939 259.893C997.92 259.846 997.909 259.797 997.905 259.747C997.905 259.747 997.933 259.792 997.967 259.881C998 259.971 998.062 260.128 998.124 260.296C998.264 260.654 998.471 261.186 998.773 261.858C999.139 262.669 999.568 263.45 1000.06 264.193C1000.69 265.181 1001.5 266.046 1002.45 266.747C1003.61 267.562 1004.98 268.044 1006.4 268.141C1008.03 268.247 1009.67 268.108 1011.26 267.727C1014.93 266.822 1018.65 266.123 1022.39 265.633C1026.15 265.148 1029.96 265.148 1033.72 265.633C1036.79 266.049 1039.78 266.931 1042.58 268.248C1044.47 269.133 1046.23 270.263 1047.83 271.608C1048.26 271.975 1048.67 272.363 1049.07 272.773L1049.37 273.086C1049.44 273.165 1049.47 273.198 1049.46 273.204Z" fill="black"/>
<path d="M1046.16 272.93H1046.02L1045.61 272.862L1044.01 272.599C1042.05 272.298 1040.08 272.098 1038.11 272C1035.17 271.856 1032.23 271.949 1029.32 272.28C1025.75 272.759 1022.21 273.453 1018.72 274.358C1015 275.254 1011.38 276.038 1008.03 275.987C1006.45 275.997 1004.87 275.809 1003.33 275.427C1001.99 275.048 1000.75 274.377 999.703 273.462C998.197 272.146 996.974 270.538 996.107 268.735C995.778 268.083 995.517 267.398 995.329 266.691C995.356 266.731 995.377 266.774 995.391 266.82L995.542 267.212C995.682 267.559 995.895 268.058 996.208 268.679C997.104 270.444 998.336 272.015 999.837 273.305C1000.87 274.186 1002.08 274.83 1003.39 275.192C1004.91 275.561 1006.47 275.74 1008.03 275.724C1011.35 275.724 1014.93 274.979 1018.67 274.078C1022.17 273.166 1025.72 272.474 1029.31 272.006C1032.24 271.69 1035.2 271.617 1038.14 271.787C1040.12 271.902 1042.1 272.132 1044.05 272.476C1044.75 272.605 1045.28 272.711 1045.65 272.795L1046.05 272.89C1046.12 272.907 1046.16 272.924 1046.16 272.93Z" fill="black"/>
<path d="M1046.68 247.797C1046.63 248.115 1046.55 248.429 1046.46 248.738C1046.38 249.106 1046.27 249.468 1046.14 249.824C1045.99 250.244 1045.85 250.726 1045.63 251.235C1045.4 251.745 1045.19 252.316 1044.89 252.915C1044.59 253.514 1044.26 254.114 1043.9 254.758C1042.26 257.51 1040.13 259.938 1037.62 261.92C1037.03 262.368 1036.5 262.799 1035.94 263.146C1035.38 263.494 1034.88 263.824 1034.39 264.098C1033.9 264.373 1033.45 264.597 1033.06 264.793C1032.73 264.969 1032.38 265.124 1032.03 265.258C1031.73 265.392 1031.43 265.504 1031.12 265.594C1031.4 265.425 1031.68 265.279 1031.98 265.157C1032.26 265.028 1032.6 264.866 1032.99 264.647C1033.38 264.429 1033.82 264.222 1034.29 263.919C1034.75 263.617 1035.28 263.326 1035.81 262.945C1036.33 262.564 1036.89 262.155 1037.49 261.713C1039.95 259.723 1042.06 257.32 1043.7 254.612C1044.07 253.979 1044.42 253.386 1044.7 252.803C1044.98 252.221 1045.26 251.683 1045.47 251.168C1045.68 250.653 1045.86 250.194 1046.03 249.785C1046.2 249.376 1046.31 249.012 1046.4 248.721C1046.46 248.405 1046.56 248.096 1046.68 247.797Z" fill="black"/>
<path d="M1045.83 281.178C1045.68 281.178 1045.53 281.165 1045.38 281.139L1044.82 281.066C1044.6 281.038 1044.35 281.066 1044.08 281.027C1042.49 280.989 1040.92 281.234 1039.42 281.75C1038.39 282.104 1037.38 282.535 1036.41 283.038C1035.3 283.623 1034.22 284.266 1033.18 284.964C1030.97 286.437 1028.67 288.24 1026.19 290.06L1013.56 299.44L1009.7 302.24L1008.64 302.968C1008.52 303.063 1008.4 303.146 1008.26 303.214C1008.37 303.109 1008.48 303.012 1008.6 302.923L1009.63 302.128L1013.43 299.244L1026.03 289.825C1028.5 288.01 1030.81 286.207 1033.05 284.74C1034.1 284.042 1035.19 283.4 1036.31 282.819C1037.3 282.322 1038.32 281.899 1039.37 281.554C1040.89 281.049 1042.49 280.833 1044.09 280.915C1044.37 280.915 1044.63 280.943 1044.84 280.977L1045.4 281.078C1045.55 281.098 1045.69 281.132 1045.83 281.178Z" fill="black"/>
<path d="M1063.9 298.348C1063.79 298.094 1063.71 297.829 1063.65 297.558C1063.52 297.049 1063.33 296.304 1063.06 295.397C1062.76 294.333 1062.37 293.294 1061.91 292.289C1061.35 291.066 1060.58 289.948 1059.65 288.985C1058.71 288.018 1057.54 287.31 1056.25 286.929C1055.19 286.645 1054.09 286.548 1052.99 286.644C1051.98 286.758 1050.97 286.93 1049.98 287.159C1050.04 287.119 1050.11 287.089 1050.18 287.069C1050.31 287.019 1050.51 286.952 1050.74 286.879C1051.47 286.662 1052.22 286.516 1052.98 286.442C1054.1 286.311 1055.24 286.389 1056.34 286.672C1057.68 287.051 1058.89 287.778 1059.86 288.777C1060.83 289.765 1061.61 290.916 1062.17 292.177C1062.63 293.199 1063 294.257 1063.29 295.341C1063.53 296.259 1063.69 297.021 1063.79 297.536C1063.85 297.803 1063.89 298.075 1063.9 298.348Z" fill="black"/>
<path d="M1053.97 193.831C1064.98 193.32 1073.49 183.979 1072.98 172.968C1072.47 161.957 1063.12 153.446 1052.11 153.958C1041.1 154.469 1032.59 163.81 1033.1 174.821C1033.61 185.832 1042.96 194.343 1053.97 193.831Z" fill="white"/>
<path d="M1041.94 196.96C1042.12 196.908 1042.31 196.865 1042.5 196.831C1043.04 196.765 1043.58 196.868 1044.06 197.128C1044.39 197.299 1044.67 197.54 1044.9 197.834C1045.15 198.175 1045.3 198.582 1045.32 199.004C1045.37 199.49 1045.27 199.98 1045.04 200.409C1044.81 200.837 1044.45 201.184 1044.01 201.402C1043.57 201.619 1043.08 201.698 1042.59 201.627C1042.11 201.556 1041.66 201.338 1041.3 201.003C1040.98 200.729 1040.75 200.37 1040.62 199.967C1040.52 199.603 1040.5 199.221 1040.56 198.847C1040.64 198.31 1040.89 197.811 1041.27 197.419C1041.53 197.145 1041.73 197.05 1041.72 197.033C1041.67 197.048 1041.62 197.071 1041.58 197.1C1041.52 197.129 1041.47 197.163 1041.42 197.201C1041.35 197.253 1041.28 197.309 1041.21 197.369C1040.87 197.699 1040.62 198.116 1040.49 198.576C1040.36 199.036 1040.35 199.522 1040.48 199.984C1040.6 200.42 1040.85 200.809 1041.19 201.104C1041.57 201.437 1042.03 201.658 1042.52 201.743C1043.05 201.855 1043.6 201.784 1044.09 201.542C1044.58 201.3 1044.97 200.901 1045.2 200.41C1045.42 199.964 1045.52 199.464 1045.49 198.965C1045.46 198.512 1045.3 198.078 1045.02 197.716C1044.78 197.404 1044.48 197.153 1044.12 196.983C1043.62 196.723 1043.04 196.634 1042.49 196.731C1042.4 196.743 1042.32 196.764 1042.23 196.792C1042.17 196.808 1042.11 196.831 1042.05 196.859C1041.98 196.921 1041.93 196.96 1041.94 196.96Z" fill="#263238"/>
<path d="M1036.42 185.251L1036.26 184.965L1035.77 184.147C1035.66 183.963 1035.54 183.761 1035.4 183.543C1035.27 183.324 1035.17 183.055 1035.03 182.775C1034.9 182.495 1034.76 182.215 1034.61 181.879C1034.53 181.717 1034.46 181.549 1034.4 181.375C1034.34 181.196 1034.27 181.017 1034.2 180.815C1033.53 178.999 1033.13 177.09 1033.02 175.154C1032.87 172.59 1033.21 170.019 1034.02 167.583L1034.37 166.563C1034.51 166.222 1034.67 165.891 1034.83 165.55C1034.9 165.382 1034.98 165.214 1035.06 165.04C1035.13 164.865 1035.21 164.697 1035.31 164.536L1035.87 163.534C1035.97 163.366 1036.06 163.198 1036.16 163.03L1036.51 162.548L1037.21 161.574C1037.45 161.255 1037.74 160.958 1038.01 160.644L1038.42 160.179C1038.48 160.107 1038.55 160.023 1038.62 159.95L1038.85 159.737C1039.45 159.133 1040.09 158.572 1040.77 158.057C1041.12 157.805 1041.46 157.497 1041.83 157.279L1042.95 156.59C1043.14 156.478 1043.32 156.349 1043.51 156.248L1044.12 155.957C1044.53 155.767 1044.93 155.554 1045.35 155.397C1046.21 155.054 1047.1 154.765 1048 154.535L1048.68 154.361L1049.03 154.277L1049.38 154.227L1050.8 154.014C1051.28 153.963 1051.76 153.952 1052.25 153.924C1052.49 153.924 1052.73 153.885 1052.98 153.924L1053.71 153.958C1054.71 153.994 1055.7 154.097 1056.68 154.266L1058.15 154.619L1058.52 154.708C1058.64 154.742 1058.76 154.787 1058.88 154.826L1059.61 155.078L1060.33 155.324L1061.04 155.638L1061.75 155.963L1062.1 156.119C1062.22 156.181 1062.32 156.248 1062.44 156.315L1063.79 157.094L1065.08 158.012C1068.54 160.602 1071.06 164.25 1072.25 168.4C1072.39 168.91 1072.51 169.425 1072.64 169.929L1072.88 171.48L1072.93 171.867V172.253L1072.97 173.026L1073.01 173.799L1072.98 174.566L1072.95 175.333V175.714L1072.89 176.089C1072.82 176.593 1072.75 177.091 1072.69 177.59C1072.49 178.566 1072.23 179.528 1071.9 180.468L1071.66 181.163C1071.58 181.398 1071.47 181.611 1071.37 181.835C1071.16 182.277 1070.99 182.725 1070.76 183.151C1070.54 183.576 1070.29 183.985 1070.05 184.399L1069.87 184.707C1069.8 184.808 1069.73 184.903 1069.66 184.999L1069.25 185.559C1068.71 186.313 1068.12 187.031 1067.49 187.709C1067.17 188.039 1066.83 188.336 1066.51 188.65L1066.01 189.109C1065.84 189.26 1065.65 189.389 1065.48 189.523L1064.43 190.33C1064.07 190.582 1063.68 190.795 1063.31 191.024C1062.59 191.472 1061.84 191.868 1061.07 192.211L1060.79 192.346L1060.5 192.458L1059.94 192.665C1059.54 192.799 1059.17 192.962 1058.78 193.074L1057.62 193.371L1057.06 193.516L1056.5 193.606L1055.38 193.779C1055.19 193.812 1055.01 193.831 1054.82 193.835H1054.26C1053.89 193.835 1053.52 193.886 1053.14 193.891L1052.06 193.847C1049.49 193.72 1046.97 193.101 1044.64 192.021C1044.39 191.903 1044.13 191.797 1043.88 191.679L1043.19 191.276L1042.51 190.895C1042.4 190.828 1042.29 190.772 1042.19 190.705L1041.89 190.492L1040.77 189.686C1040.42 189.417 1040.12 189.126 1039.81 188.868L1039.37 188.487C1039.23 188.371 1039.1 188.246 1038.98 188.112L1038.22 187.44C1038.01 187.216 1037.81 187.015 1037.66 186.819L1037.23 186.259L1036.67 185.503C1036.54 185.335 1036.47 185.251 1036.47 185.251L1036.66 185.514C1036.79 185.693 1036.98 185.945 1037.22 186.281L1037.64 186.841C1037.81 187.043 1038.01 187.244 1038.2 187.468L1038.87 188.202C1038.99 188.339 1039.12 188.466 1039.27 188.583L1039.7 188.969C1040.01 189.227 1040.31 189.529 1040.66 189.792L1041.78 190.61L1042.08 190.823C1042.18 190.895 1042.3 190.951 1042.4 191.019L1043.07 191.405L1043.77 191.814L1044.54 192.161C1046.88 193.257 1049.41 193.888 1051.99 194.02L1053.08 194.071C1053.44 194.071 1053.82 194.037 1054.2 194.02L1054.76 193.987C1054.94 193.986 1055.13 193.969 1055.32 193.936L1056.46 193.763L1057.02 193.673L1057.58 193.527L1058.76 193.231C1059.15 193.119 1059.53 192.962 1059.92 192.827L1060.51 192.615C1060.6 192.575 1060.7 192.547 1060.8 192.503L1061.08 192.368C1061.87 192.023 1062.63 191.625 1063.36 191.175C1063.73 190.946 1064.12 190.733 1064.48 190.481L1065.55 189.669C1065.73 189.529 1065.91 189.406 1066.11 189.255L1066.61 188.79C1066.93 188.476 1067.28 188.174 1067.6 187.843C1068.24 187.16 1068.84 186.436 1069.38 185.676C1069.52 185.48 1069.66 185.29 1069.8 185.116C1069.87 185.021 1069.94 184.926 1070.01 184.825L1070.18 184.511L1070.91 183.257C1071.13 182.826 1071.32 182.372 1071.52 181.93C1071.62 181.7 1071.74 181.482 1071.82 181.252L1072.05 180.547C1072.39 179.599 1072.65 178.63 1072.85 177.646C1072.92 177.147 1073 176.638 1073.06 176.134L1073.12 175.753V175.367L1073.15 174.599L1073.19 173.821L1073.15 173.043L1073.1 172.264V171.867L1073.04 171.48L1072.81 169.918C1072.68 169.403 1072.55 168.887 1072.41 168.372C1071.23 164.173 1068.71 160.477 1065.22 157.85L1063.92 156.92L1062.55 156.136C1062.44 156.069 1062.33 156.002 1062.21 155.94L1061.85 155.778L1061.14 155.453L1060.43 155.139L1059.7 154.887L1058.96 154.635L1058.6 154.512L1058.22 154.428C1057.73 154.305 1057.23 154.187 1056.74 154.075C1055.75 153.902 1054.75 153.797 1053.75 153.762L1053.01 153.728C1052.76 153.728 1052.52 153.728 1052.27 153.728C1051.78 153.762 1051.29 153.767 1050.81 153.818L1049.37 154.036L1049.02 154.092C1048.9 154.092 1048.79 154.148 1048.67 154.176L1047.98 154.355C1047.07 154.585 1046.18 154.875 1045.31 155.223C1044.89 155.403 1044.48 155.621 1044.07 155.811L1043.46 156.108C1043.25 156.209 1043.07 156.338 1042.9 156.455L1041.78 157.15C1041.41 157.396 1041.06 157.682 1040.72 157.939C1040.03 158.455 1039.39 159.016 1038.78 159.619L1038.55 159.838C1038.48 159.911 1038.41 159.995 1038.34 160.073C1038.28 160.151 1038.07 160.387 1037.93 160.538C1037.66 160.857 1037.37 161.154 1037.13 161.473L1036.43 162.459L1036.08 162.946C1035.98 163.114 1035.88 163.287 1035.79 163.455L1035.23 164.463C1035.13 164.626 1035.05 164.797 1034.98 164.973L1034.74 165.488C1034.59 165.83 1034.43 166.166 1034.29 166.507C1034.16 166.849 1034.06 167.196 1033.94 167.538C1033.13 169.99 1032.8 172.576 1032.97 175.154C1033.08 177.1 1033.49 179.017 1034.18 180.838L1034.38 181.398C1034.44 181.571 1034.51 181.74 1034.59 181.902L1035.03 182.798C1035.17 183.072 1035.28 183.33 1035.41 183.559L1035.78 184.159L1036.29 184.971C1036.35 185.155 1036.42 185.251 1036.42 185.251Z" fill="#263238"/>
<path d="M1042.96 174.398L1045.92 171.441L1051.62 176.509L1062.81 165.74L1065.55 168.697L1051.2 182.21L1042.96 174.398Z" fill="#B36FF3"/>
<defs>
<linearGradient id="paint0_linear_626_1844" x1="10.3008" y1="5.49999" x2="526.318" y2="769.016" gradientUnits="userSpaceOnUse">
<stop stop-color="#E5CAFF"/>
<stop offset="1" stop-color="#B36FF3"/>
</linearGradient>
</defs>
</svg>
