<svg width="17" height="16" viewBox="0 0 17 16" fill="none" xmlns="http://www.w3.org/2000/svg">
<path d="M8.02 7.02002C10.2507 7.02002 12.1413 6.67935 13.692 5.99802C15.2433 5.31735 16.019 4.49102 16.019 3.51902C16.019 2.54702 15.2433 1.72069 13.692 1.04002C12.1407 0.359354 10.25 0.0193538 8.02 0.0200205C5.79 0.0206872 3.89567 0.360687 2.337 1.04002C0.778334 1.71935 -0.000666239 2.54602 4.27533e-07 3.52002C0.000667094 4.49402 0.779667 5.32002 2.337 5.99802C3.89433 6.67602 5.78833 7.01635 8.019 7.01902M8 8.55802C8.81133 8.55802 9.63667 8.49335 10.476 8.36402C11.3153 8.23535 12.104 8.04469 12.842 7.79202C13.58 7.53935 14.23 7.22635 14.792 6.85302C15.354 6.47969 15.763 6.04802 16.019 5.55802V8.51902C15.763 9.00902 15.354 9.44069 14.792 9.81402C14.2307 10.188 13.5807 10.5014 12.842 10.754C12.104 11.0067 11.3153 11.1974 10.476 11.326C9.63667 11.4547 8.81133 11.519 8 11.519C7.18867 11.519 6.36333 11.4547 5.524 11.326C4.68467 11.1974 3.899 11.0067 3.167 10.754C2.435 10.5014 1.78833 10.188 1.227 9.81402C0.665667 9.44002 0.256667 9.00869 4.27533e-07 8.52002V5.55802C0.256 6.04735 0.665001 6.47902 1.227 6.85302C1.78833 7.22635 2.435 7.53969 3.167 7.79302C3.899 8.04502 4.68467 8.23569 5.524 8.36502C6.36333 8.49435 7.18867 8.55869 8 8.55802ZM8 13.058C8.81133 13.058 9.63667 12.9937 10.476 12.865C11.3147 12.7357 12.1033 12.5447 12.842 12.292C13.5807 12.0394 14.2307 11.7264 14.792 11.353C15.3533 10.9797 15.7623 10.548 16.019 10.058V13C15.763 13.49 15.354 13.9217 14.792 14.295C14.2307 14.6684 13.5807 14.9817 12.842 15.235C12.104 15.4877 11.3153 15.6784 10.476 15.807C9.63667 15.9357 8.81133 16 8 16C7.18867 16 6.36333 15.9357 5.524 15.807C4.68467 15.6784 3.899 15.4877 3.167 15.235C2.435 14.9824 1.78833 14.669 1.227 14.295C0.665667 13.921 0.256667 13.4894 4.27533e-07 13V10.058C0.256667 10.5474 0.665667 10.979 1.227 11.353C1.78833 11.727 2.435 12.0404 3.167 12.293C3.899 12.5457 4.68467 12.7364 5.524 12.865C6.36333 12.9937 7.18867 13.058 8 13.058Z" fill="white"/>
</svg>
