<svg width="72" height="72" viewBox="0 0 72 72" fill="none" xmlns="http://www.w3.org/2000/svg">
<rect width="72" height="72" rx="16" fill="#378696"/>
<path d="M56.7674 34.9566C56.7048 34.7678 56.5652 34.6528 56.403 34.6229L54.9509 34.2055V28.5357L55.9575 27.8496C56.2976 27.6179 56.2225 27.0966 55.831 26.9711L30.4447 18.7883C29.8762 18.6048 29.2541 18.6885 28.7542 19.0178C25.2254 21.34 21.6954 23.6611 18.1666 25.9833C17.8201 26.703 17.2967 28.0341 17.2678 29.776C17.2366 31.682 17.8137 33.1343 18.1666 33.868L19.8724 34.6627L16.1612 35.859C15.7696 35.9852 15.6944 36.5066 16.0344 36.7382L17.0408 37.4241V43.0937L15.5912 43.5104C15.428 43.5395 15.2874 43.6546 15.2248 43.8446C15.1551 44.0562 15.2323 44.2778 15.4017 44.4018L27.8532 53.5149C28.5439 54.0203 29.4549 54.1098 30.2307 53.7484L53.8255 42.7565C54.1781 42.0225 54.7551 40.5703 54.7238 38.6643C54.7223 38.574 54.7194 38.4849 54.7154 38.3969C54.7153 38.3967 54.7153 38.3964 54.7153 38.3961C54.7003 38.0693 54.6682 37.7581 54.6238 37.4638C54.6238 37.4637 54.6238 37.4635 54.6237 37.4633C54.6169 37.4182 54.6098 37.3736 54.6025 37.3293C54.6024 37.3289 54.6024 37.3286 54.6023 37.3283C54.5987 37.3066 54.5951 37.285 54.5913 37.2635C54.5912 37.2627 54.591 37.2619 54.5909 37.261C54.5871 37.2394 54.5833 37.2179 54.5794 37.1965C54.5755 37.1747 54.5715 37.1529 54.5674 37.1313C54.5674 37.1313 54.5673 37.1312 54.5673 37.1311C54.5597 37.0908 54.5519 37.0507 54.5439 37.0111L56.5904 35.5133C56.7598 35.39 56.837 35.168 56.7674 34.9566Z" fill="#EDE4C3"/>
<path d="M56.7673 34.9566C56.7048 34.7678 56.5651 34.6528 56.403 34.6229L54.9509 34.2055V35.45L54.2559 35.9339L54.2558 35.9339L52.3913 37.2322L46.4481 41.3705C46.0177 41.67 45.5873 41.9696 45.157 42.2692C44.9328 42.4252 44.7087 42.5812 44.4845 42.7373C44.0957 43.0079 43.7068 43.2786 43.318 43.5493C43.2893 43.461 43.2603 43.3674 43.2313 43.2689C43.1611 43.0305 43.0911 42.7627 43.0282 42.4682C43.009 42.3782 42.9904 42.2857 42.9728 42.1908C42.9165 41.8893 42.8689 41.5635 42.8362 41.2156C42.827 41.1177 42.8189 41.0181 42.8122 40.9169C42.7936 40.6368 42.7851 40.3438 42.7896 40.0391C42.7905 39.9794 42.7919 39.9202 42.7937 39.8614C42.7972 39.7513 42.8022 39.6429 42.8087 39.5362C42.8103 39.5106 42.8119 39.4852 42.8137 39.4598C42.8399 39.0758 42.8851 38.7142 42.9424 38.3773C42.9635 38.2536 42.9862 38.1332 43.0102 38.0163C43.0257 37.9408 43.0417 37.8667 43.0582 37.7942C43.1774 37.2692 43.3199 36.8216 43.451 36.4636H43.318L48.1198 33.1911L49.6678 32.1362L54.9509 28.5356L55.9575 27.8496C56.2975 27.6179 56.2224 27.0966 55.8309 26.9711L30.4446 18.7883C29.8761 18.6048 29.254 18.6885 28.7542 19.0178C25.2253 21.34 21.6954 23.6611 18.1665 25.9833C17.8201 26.703 17.2967 28.0341 17.2677 29.776C17.2366 31.682 17.8137 33.1343 18.1665 33.868L19.8724 34.6627L16.1611 35.859C15.7696 35.9852 15.6944 36.5066 16.0344 36.7382L17.0408 37.4241L28.6735 45.3515C28.8812 45.6913 29.2378 46.3415 29.4638 47.232C29.4942 47.3516 29.5222 47.4756 29.5471 47.6037C29.616 47.9571 29.6618 48.3421 29.6703 48.7553C29.6709 48.7851 29.6713 48.8149 29.6716 48.8449C29.6717 48.8595 29.6717 48.874 29.6717 48.8886C29.6717 48.8907 29.6717 48.8927 29.6717 48.8949C29.6717 48.9369 29.6713 48.9786 29.6706 49.0201C29.6702 49.0367 29.6699 49.0532 29.6695 49.0698C29.6603 49.4247 29.6236 49.7587 29.5686 50.0693C29.5519 50.164 29.5334 50.2566 29.5135 50.3469C29.4413 50.6743 29.3503 50.9724 29.2527 51.2378C29.2209 51.3243 29.1884 51.4074 29.1556 51.4869C28.9806 51.9116 28.798 52.2343 28.6735 52.438L26.8347 51.1577L19.6003 46.1204L17.0408 44.3382V43.0937L15.5912 43.5104C15.428 43.5395 15.2874 43.6546 15.2248 43.8446C15.1551 44.0562 15.2323 44.2778 15.4017 44.4018L27.8532 53.5149C28.5439 54.0203 29.4549 54.1098 30.2307 53.7484L53.8255 42.7565C54.1781 42.0225 54.7551 40.5703 54.7238 38.6643C54.7223 38.574 54.7194 38.4849 54.7154 38.3969C54.7153 38.3967 54.7153 38.3964 54.7153 38.3961C54.7003 38.0693 54.6682 37.7581 54.6238 37.4638C54.6238 37.4637 54.6238 37.4635 54.6237 37.4633C54.6169 37.4182 54.6098 37.3736 54.6025 37.3293C54.6024 37.3289 54.6024 37.3286 54.6023 37.3283C54.5987 37.3066 54.5951 37.285 54.5913 37.2635C54.5912 37.2627 54.591 37.2619 54.5909 37.261C54.5871 37.2394 54.5833 37.2179 54.5794 37.1965C54.5755 37.1747 54.5715 37.1529 54.5674 37.1313C54.5674 37.1313 54.5673 37.1312 54.5673 37.1311C54.5597 37.0908 54.5519 37.0507 54.5439 37.0111L56.5904 35.5133C56.7598 35.39 56.837 35.168 56.7673 34.9566Z" fill="#FBB911"/>
<path d="M54.7238 38.6643C54.7223 38.5741 54.7194 38.485 54.7153 38.397C54.7153 38.3967 54.7153 38.3964 54.7153 38.3961C54.7002 38.0693 54.6682 37.7581 54.6238 37.4639C54.6238 37.4637 54.6237 37.4635 54.6237 37.4633C54.6169 37.4182 54.6098 37.3736 54.6025 37.3293C54.6024 37.329 54.6024 37.3286 54.6023 37.3283C54.5987 37.3066 54.595 37.285 54.5913 37.2636C54.5912 37.2627 54.591 37.2619 54.5909 37.261C54.5871 37.2394 54.5833 37.2179 54.5794 37.1965C54.5754 37.1747 54.5714 37.153 54.5674 37.1314C54.5674 37.1313 54.5673 37.1312 54.5673 37.1312C54.5597 37.0908 54.5519 37.0508 54.5438 37.0111L54.5438 37.0111L49.8019 40.4814L46.9143 42.5948L44.1385 44.6262C43.4477 45.1325 42.5371 45.2215 41.7605 44.86L41.6783 44.8217L40.674 44.3539L39.1511 43.6444L39.1512 43.6445L38.4059 43.2973C38.4059 43.2972 38.4059 43.2972 38.4059 43.2972L37.326 42.7941L37.326 42.7942L36.5792 42.4463C36.5792 42.4462 36.5792 42.4462 36.5792 42.4462L36.1389 42.241L34.1374 41.3085L23.2058 36.2157L23.2058 36.2161L22.4676 35.8722L22.4676 35.8718L22.2449 35.768L21.3797 35.3649C21.3797 35.3651 21.3797 35.3652 21.3798 35.3654L20.6309 35.0165C20.6309 35.0163 20.6309 35.0162 20.6308 35.0161L19.8724 34.6627L16.1611 35.859C15.7696 35.9852 15.6944 36.5066 16.0344 36.7383L17.0408 37.4241L28.6735 45.3516C28.8812 45.6913 29.2378 46.3415 29.4638 47.2321C29.4941 47.3517 29.5222 47.4756 29.5471 47.6037C29.616 47.9571 29.6618 48.3422 29.6703 48.7554C29.6709 48.7851 29.6713 48.8149 29.6716 48.8449C29.6717 48.8595 29.6717 48.874 29.6717 48.8886C29.6717 48.8907 29.6717 48.8928 29.6717 48.8949C29.6717 48.9369 29.6713 48.9786 29.6706 49.0201C29.6702 49.0367 29.6699 49.0533 29.6695 49.0698C29.6603 49.4247 29.6236 49.7587 29.5686 50.0694C29.5519 50.1641 29.5334 50.2566 29.5135 50.3469C29.4413 50.6744 29.3503 50.9724 29.2527 51.2378C29.2209 51.3244 29.1884 51.4074 29.1556 51.4869C28.9806 51.9116 28.798 52.2343 28.6735 52.438L26.8347 51.1577L19.6003 46.1204L17.0408 44.3382V43.0938L15.5912 43.5105C15.428 43.5395 15.2874 43.6546 15.2248 43.8446C15.1551 44.0562 15.2323 44.2778 15.4017 44.4018L27.8532 53.5149C28.5439 54.0204 29.4549 54.1099 30.2307 53.7484L53.8255 42.7565C54.178 42.0225 54.7551 40.5703 54.7238 38.6643Z" fill="#0D759C"/>
<path d="M29.6705 48.7553C29.662 48.3421 29.6162 47.9571 29.5474 47.6037C29.5224 47.4756 29.4944 47.3516 29.464 47.232C29.238 46.3415 28.8815 45.6913 28.6737 45.3515L17.041 37.4241V39.5797C17.4041 39.6342 17.7673 39.7258 18.1267 39.8476L22.4838 42.8066C22.6222 42.9537 22.7535 43.1006 22.877 43.2459C23.3755 43.8323 23.8677 44.4629 24.3275 45.1268L20.848 42.7637L20.0573 42.2267L17.041 40.1783V40.4933L19.7314 42.3204L21.0726 43.2312L24.7132 45.7037C25.0752 46.2656 25.4102 46.8479 25.7039 47.4445L21.8339 44.8163L18.6264 42.638L17.041 41.5613V41.8763L18.3005 42.7317L22.0585 45.2838L25.9219 47.9076C26.1347 48.3809 26.3197 48.8619 26.47 49.3478L21.1522 45.7364L17.1956 43.0493L17.041 42.9443V43.2594L20.8122 45.8205L26.5832 49.7397C26.6204 49.8783 26.6547 50.0171 26.6858 50.1562C26.8075 50.7019 26.8782 50.9102 26.8349 51.1577L28.6737 52.438C28.7982 52.2343 28.9808 51.9116 29.1558 51.4869C29.1886 51.4074 29.2211 51.3243 29.2529 51.2378C29.3505 50.9724 29.4415 50.6743 29.5137 50.3469C29.5336 50.2566 29.552 50.1641 29.5688 50.0693C29.6238 49.7587 29.6605 49.4247 29.6697 49.0697C29.6701 49.0532 29.6705 49.0367 29.6708 49.0201C29.6715 48.9786 29.6719 48.9368 29.6719 48.8949C29.6719 48.8927 29.6719 48.8907 29.6719 48.8886C29.6719 48.874 29.6719 48.8595 29.6718 48.8449C29.6715 48.8149 29.6711 48.7851 29.6705 48.7553Z" fill="#D0C9AD"/>
<path d="M49.6674 32.1362L48.1195 33.1911L43.3176 36.4636H43.4507C43.3196 36.8216 43.1771 37.2692 43.0579 37.7942C43.0414 37.8667 43.0254 37.9408 43.0099 38.0163C42.9859 38.1332 42.9632 38.2536 42.9421 38.3773C42.8848 38.7142 42.8395 39.0758 42.8133 39.4598C42.8116 39.4852 42.8099 39.5106 42.8084 39.5362C42.8018 39.6429 42.7968 39.7513 42.7934 39.8614C42.7916 39.9202 42.7901 39.9794 42.7893 40.0391C42.7848 40.3438 42.7933 40.6368 42.8118 40.9169C42.8186 41.0182 42.8267 41.1177 42.8358 41.2156C42.8686 41.5635 42.9162 41.8894 42.9724 42.1909C42.9901 42.2857 43.0087 42.3782 43.0279 42.4682C43.0908 42.7627 43.1607 43.0306 43.2309 43.2689C43.26 43.3675 43.289 43.461 43.3176 43.5493C43.7065 43.2786 44.0953 43.0079 44.4842 42.7373C44.7083 42.5812 44.9325 42.4252 45.1566 42.2692C45.1134 42.0219 45.1841 41.8135 45.3057 41.268C45.3369 41.1289 45.3711 40.9901 45.4083 40.8516L51.1793 36.9323L53.9185 35.0721L54.9506 34.3712V34.0562L54.796 34.1611L53.787 34.8464L53.6305 34.9526L50.8394 36.8482L45.5216 40.4596C45.6718 39.9737 45.8568 39.4927 46.0696 39.0194L49.5612 36.6482L49.9331 36.3956L52.9881 34.3209L53.6911 33.8435L54.9506 32.9881V32.6731L53.3651 33.7498L52.7525 34.1659L50.1577 35.9281L48.361 37.1483L46.2877 38.5563C46.4031 38.322 46.5247 38.0899 46.652 37.8604C46.8487 37.5055 47.0586 37.1567 47.2784 36.8155L49.6767 35.1867L50.3129 34.7547L50.919 34.343L51.9537 33.6403L52.2602 33.4322L54.9506 31.6051V31.2901L51.9343 33.3385L51.7181 33.4853L51.1436 33.8755L50.0866 34.5934L48.5721 35.6219L47.6641 36.2386C47.7478 36.1177 47.8325 35.998 47.9182 35.8795C48.3033 35.3467 48.7067 34.8374 49.1146 34.3577C49.1938 34.2645 49.2762 34.1707 49.3616 34.0766C49.4094 34.0239 49.4581 33.9712 49.5078 33.9184L50.9193 32.9598L53.8649 30.9594C54.2243 30.8376 54.5875 30.746 54.9506 30.6915V28.5356L49.6674 32.1362Z" fill="#D0C9AD"/>
<path d="M22.4838 42.8066L29.5474 47.6037C29.5224 47.4756 29.4944 47.3516 29.464 47.232L21.2357 41.644L19.4661 40.4421L17.041 38.7952V39.1103L18.1267 39.8476L22.4838 42.8066Z" fill="#AEA992"/>
<path d="M21.0726 43.2309L24.7132 45.7034L29.6697 49.0694C29.6701 49.0529 29.6705 49.0364 29.6708 49.0198C29.6715 48.9783 29.6719 48.9365 29.6719 48.8945C29.6719 48.8924 29.672 48.8903 29.672 48.8882C29.6719 48.8737 29.6719 48.8592 29.6718 48.8446C29.6715 48.8146 29.6711 48.7847 29.6705 48.755L24.3275 45.1264L20.848 42.7634L20.0573 42.2264L17.041 40.178V40.493L19.7314 42.3201L21.0726 43.2309Z" fill="#AEA992"/>
<path d="M22.0585 45.2838L25.9219 47.9076L29.5137 50.3469C29.5336 50.2566 29.552 50.164 29.5688 50.0693L25.7039 47.4445L21.8339 44.8163L18.6264 42.638L17.041 41.5613V41.8763L18.3005 42.7317L22.0585 45.2838Z" fill="#AEA992"/>
<path d="M20.8122 45.8205L26.5832 49.7398L29.1559 51.4869C29.1886 51.4074 29.2211 51.3243 29.2529 51.2378L26.47 49.3478L21.1522 45.7364L17.1956 43.0493L17.041 42.9444V43.2594L20.8122 45.8205Z" fill="#AEA992"/>
<path d="M50.7562 32.7557L50.684 32.8048L49.0933 33.8851L43.7226 37.5324L43.0102 38.0163C42.9862 38.1332 42.9635 38.2536 42.9424 38.3773L44.8272 37.0973L49.3196 34.0464L49.5081 33.9184L50.9196 32.9598L53.8652 30.9594L54.9509 30.2221V29.907L52.5258 31.554L50.7562 32.7557Z" fill="#AEA992"/>
<path d="M51.7187 33.4853L51.1442 33.8755L50.0871 34.5933L48.5727 35.6219L47.6646 36.2386L43.0921 39.3439L42.8089 39.5362C42.8024 39.6429 42.7974 39.7513 42.7939 39.8613L44.2923 38.8438L47.2789 36.8155L49.6773 35.1867L50.3134 34.7547L50.9196 34.343L51.9543 33.6403L52.2607 33.4322L54.9511 31.6051V31.2901L51.9348 33.3385L51.7187 33.4853Z" fill="#AEA992"/>
<path d="M52.7532 34.1659L50.1583 35.9281L48.3617 37.1483L46.2884 38.5563L42.8125 40.9169C42.8192 41.0181 42.8273 41.1177 42.8365 41.2156L46.0703 39.0194L49.5619 36.6482L49.9337 36.3956L52.9888 34.3209L53.6917 33.8435L54.9512 32.9881V32.6731L53.3658 33.7498L52.7532 34.1659Z" fill="#AEA992"/>
<path d="M53.7872 34.8464L53.6308 34.9526L50.8396 36.8482L45.5218 40.4596L42.9727 42.1908C42.9903 42.2857 43.0089 42.3782 43.0281 42.4682L45.4085 40.8516L51.1796 36.9323L53.9187 35.0721L54.9508 34.3712V34.0562L54.7962 34.1611L53.7872 34.8464Z" fill="#AEA992"/>
<path d="M33.0254 32.1746L37.4768 34.0295C37.4769 34.0294 37.4769 34.0293 37.477 34.0293L38.1338 34.303C38.1337 34.303 38.1337 34.3031 38.1337 34.3032L38.9713 34.6523L38.9714 34.652L39.6462 34.9332C39.6462 34.9332 39.6461 34.9334 39.6461 34.9334L41.428 35.6759L43.3184 36.4637L48.1203 33.1911L49.6682 32.1362L54.9513 28.5357L55.958 27.8496C56.298 27.6179 56.2229 27.0966 55.8314 26.9711L30.4451 18.7883C29.8766 18.6048 29.2545 18.6885 28.7546 19.0178C25.2258 21.34 21.6958 23.6611 18.167 25.9833L30.6552 31.187L33.0254 32.1746ZM21.515 25.9833L29.4226 20.3463C29.5675 20.2429 29.7531 20.2151 29.922 20.2714L51.5186 27.4703C51.9563 27.6162 52.0369 28.2006 51.655 28.4596L50.0207 29.5676L47.9242 30.9889L46.4413 31.9943L42.8882 34.4032L41.9917 34.0501L35.3036 31.4153L32.8931 30.4657L21.515 25.9833Z" fill="#F3A318"/>
<path d="M54.2561 35.9339L54.256 35.9339L52.3915 37.2322L46.4482 41.3705L45.1572 42.2694L44.4863 42.7366L43.3184 43.5498L44.6885 42.6508L45.1709 42.3343L52.7947 37.332L54.3694 36.2988L54.3694 36.2988L54.5701 36.1671L54.951 35.9171L55.6081 35.486C55.6892 35.4328 55.698 35.3279 55.6469 35.2604C55.6286 35.2361 55.6027 35.2167 55.5695 35.2062L55.385 35.1478L54.951 35.0105V35.45L54.2561 35.9339Z" fill="#F3A318"/>
<path d="M21.2212 34.1704C21.0889 33.0128 21.0212 31.8436 21.0954 30.6794C21.1587 29.6876 21.3338 28.7019 21.646 27.7573C21.6773 27.6624 21.7103 27.5682 21.7448 27.4746L21.0659 27.1917C20.6894 28.2059 20.5042 29.3135 20.4158 30.3291C20.3104 31.5388 20.3684 32.7575 20.5005 33.9626C20.518 34.1225 20.5364 34.2824 20.5558 34.4423C20.579 34.6337 20.6037 34.825 20.6304 35.016C20.6305 35.0162 20.6305 35.0163 20.6305 35.0164L21.3794 35.3653C21.3794 35.3652 21.3793 35.3651 21.3793 35.3649C21.3263 34.9855 21.2722 34.6063 21.2277 34.2256C21.2255 34.2072 21.2234 34.1888 21.2212 34.1704Z" fill="#FFD86D"/>
<path d="M23.2062 36.216L23.2062 36.2156C23.1938 36.1355 23.1818 36.0556 23.1713 35.976C23.1495 35.8112 23.1266 35.6465 23.1036 35.4819C23.0493 35.0942 22.9943 34.7066 22.9498 34.3176C22.9259 34.1093 22.9043 33.9006 22.8851 33.6917C22.7977 32.7394 22.763 31.7814 22.8239 30.8267C22.8823 29.9114 23.036 29.0015 23.3047 28.1242L22.6253 27.8411C22.3601 28.7114 22.2183 29.6262 22.1443 30.4764C22.0448 31.6192 22.091 32.7701 22.2078 33.91C22.2146 33.9767 22.2217 34.0433 22.229 34.1099C22.2873 34.6418 22.3546 35.1745 22.4401 35.703C22.4486 35.7557 22.4573 35.8083 22.4662 35.8608L22.468 35.8717L22.4681 35.8721L23.2062 36.216Z" fill="#FFD86D"/>
<path d="M37.3256 42.7941L37.3255 42.794C37.2858 42.5081 37.2472 42.2221 37.2144 41.9353C37.2092 41.8899 37.2042 41.8444 37.1992 41.799C37.1391 41.2518 37.0942 40.7023 37.0725 40.152C37.05 39.5829 37.0523 39.0131 37.0886 38.4444C37.1518 37.4525 37.327 36.4669 37.6391 35.5222C37.777 35.1051 37.947 34.7006 38.1328 34.3032C38.1328 34.3031 38.1328 34.3031 38.1329 34.303L37.476 34.0293C37.476 34.0294 37.476 34.0295 37.4759 34.0295C36.8093 35.262 36.5253 36.7577 36.4089 38.094C36.3415 38.8687 36.341 39.6471 36.384 40.4232C36.4082 40.8591 36.4461 41.2942 36.4936 41.7276C36.5064 41.8438 36.5195 41.9601 36.5333 42.0764C36.5478 42.1997 36.5629 42.3229 36.5787 42.4461C36.5787 42.4461 36.5787 42.4462 36.5788 42.4462L37.3256 42.7941Z" fill="#FFD86D"/>
<path d="M38.9713 34.6519L38.9712 34.6522C38.4691 35.782 38.2392 37.0726 38.1374 38.2413C38.0936 38.7444 38.0781 39.2491 38.0843 39.7537C38.0911 40.301 38.1236 40.8482 38.1736 41.3933C38.1883 41.554 38.2045 41.7145 38.2221 41.8748C38.2742 42.3494 38.3333 42.8247 38.4062 43.2971C38.4062 43.2971 38.4062 43.2971 38.4062 43.2972L39.1515 43.6444L39.1515 43.6443C39.0814 43.1237 39.0026 42.6044 38.9429 42.0825C38.906 41.7597 38.8741 41.4361 38.849 41.1118C38.8067 40.5678 38.7833 40.0223 38.7868 39.477C38.7886 39.1817 38.7983 38.8865 38.817 38.5916C38.8803 37.5998 39.0555 36.6141 39.3676 35.6695C39.4501 35.42 39.544 35.175 39.6459 34.9334C39.646 34.9333 39.646 34.9332 39.6461 34.9331L38.9713 34.6519Z" fill="#FFD86D"/>
<path d="M35.8959 41.8109C35.9105 41.8547 35.9716 41.8456 35.9749 41.8002C36.0037 41.4046 35.962 41.0027 35.9284 40.6028C35.9142 40.4349 35.9015 40.2674 35.8961 40.1009C35.8786 39.5681 35.8782 39.0345 35.9006 38.5019C35.9472 37.3927 36.1748 36.3241 36.3012 35.2273C36.3133 35.1224 36.1526 35.1099 36.1234 35.2032C35.7995 36.2393 35.7247 37.423 35.6794 38.5019C35.6505 39.1895 35.6079 39.9651 35.6769 40.7018C35.7132 41.0883 35.7801 41.4642 35.8959 41.8109Z" fill="#F3A318"/>
<path d="M23.6225 33.4534C23.6499 34.0454 23.7003 34.6665 23.8318 35.2386C23.8903 35.4926 23.9646 35.7369 24.0601 35.9648C24.0765 36.0038 24.1393 36.0033 24.1391 35.9541C24.1384 35.6896 24.106 35.4249 24.0655 35.1607C24.0199 34.8632 23.9641 34.5662 23.9318 34.2707C23.8994 33.9742 23.8724 33.6771 23.8517 33.3795C23.8354 33.1453 23.823 32.9108 23.815 32.6762C23.7773 31.5649 23.9238 30.4838 23.9661 29.3791C23.97 29.2778 23.8114 29.2552 23.7883 29.355C23.5431 30.4164 23.557 31.5929 23.5938 32.6762C23.6023 32.9245 23.61 33.186 23.6225 33.4534Z" fill="#F3A318"/>
<path d="M19.9685 34.3571C19.9979 33.7952 19.8846 33.2234 19.8545 32.6612C19.826 32.1289 19.8146 31.5954 19.8259 31.0625C19.8495 29.9518 20.055 28.8801 20.1586 27.7798C20.1684 27.6758 20.0084 27.6607 19.9808 27.7558C19.6778 28.8004 19.6277 29.9815 19.6047 31.0625C19.5824 32.112 19.5324 33.3671 19.8895 34.3678C19.9047 34.4103 19.9661 34.4036 19.9685 34.3571Z" fill="#F3A318"/>
<path d="M43.0282 42.4682C43.009 42.3782 42.9905 42.2857 42.9728 42.1908C42.9165 41.8893 42.8689 41.5634 42.8362 41.2156C42.827 41.1177 42.8189 41.0181 42.8122 40.9169C42.7936 40.6368 42.7851 40.3438 42.7896 40.0391C42.7905 39.9794 42.7919 39.9202 42.7937 39.8613C42.7972 39.7513 42.8022 39.6429 42.8087 39.5362C42.8103 39.5106 42.8119 39.4852 42.8137 39.4598C42.8399 39.0758 42.8851 38.7141 42.9424 38.3773C42.9635 38.2535 42.9862 38.1332 43.0102 38.0162C43.0257 37.9408 43.0417 37.8667 43.0582 37.7941C43.1774 37.2692 43.3199 36.8215 43.451 36.4636H43.318C43.1418 36.7524 42.8575 37.2655 42.6374 37.9599C42.5986 38.0823 42.5618 38.2103 42.5279 38.3437C42.4975 38.4633 42.4696 38.5873 42.4446 38.7153C42.3873 39.0095 42.346 39.3256 42.329 39.6617C42.3255 39.7293 42.3231 39.7977 42.3217 39.8668C42.3211 39.8968 42.3207 39.9268 42.3205 39.9571C42.3199 40.0327 42.3207 40.1074 42.3227 40.1812C42.332 40.5361 42.3687 40.87 42.4236 41.1806C42.4404 41.2754 42.4588 41.3679 42.4787 41.4582C42.5508 41.7857 42.6419 42.0838 42.7394 42.3493C42.7712 42.4358 42.8037 42.5189 42.8364 42.5984C42.9505 42.8756 43.0678 43.1093 43.1701 43.2948C43.2246 43.3934 43.2747 43.4785 43.318 43.5492C43.2893 43.4609 43.2603 43.3674 43.2313 43.2689C43.1611 43.0305 43.0911 42.7627 43.0282 42.4682Z" fill="#EC7B1E"/>
<path d="M49.8018 40.4814L54.7151 38.397C54.7151 38.3967 54.7151 38.3964 54.7151 38.3961C54.7 38.0693 54.668 37.7581 54.6236 37.4639C54.6236 37.4637 54.6235 37.4635 54.6235 37.4633C54.6167 37.4182 54.6096 37.3736 54.6023 37.3293C54.6022 37.329 54.6022 37.3286 54.6021 37.3283C54.5985 37.3066 54.5948 37.285 54.5911 37.2636C54.591 37.2627 54.5908 37.2619 54.5907 37.261C54.5869 37.2394 54.5831 37.2179 54.5792 37.1965C54.5752 37.1747 54.5712 37.153 54.5672 37.1314C54.5672 37.1313 54.5671 37.1312 54.5671 37.1312C54.5595 37.0908 54.5516 37.0508 54.5436 37.0111L49.8018 40.4814Z" fill="#004972"/>
<path d="M38.4062 43.2972C38.4062 43.2971 38.4062 43.2971 38.4062 43.2971L37.3263 42.794L37.3264 42.7941L36.5796 42.4462C36.5795 42.4462 36.5795 42.4461 36.5795 42.4461L36.1392 42.2409L30.5644 44.5638L28.6738 45.3515C28.8816 45.6913 29.2382 46.3415 29.4642 47.232C29.4945 47.3516 29.5225 47.4755 29.5475 47.6036C29.6164 47.957 29.6622 48.3421 29.6706 48.7553C29.6713 48.785 29.6717 48.8149 29.6719 48.8449C29.672 48.8595 29.6721 48.874 29.6721 48.8885C29.6721 48.8907 29.6721 48.8927 29.6721 48.8948C29.6721 48.9369 29.6717 48.9786 29.6709 49.0201C29.6709 49.0207 29.6709 49.0213 29.6709 49.0219L29.9124 48.9195L30.8804 48.5088L31.1659 48.3877L31.1661 48.3876L40.6744 44.3538L39.1515 43.6443L39.1516 43.6444L38.4062 43.2972Z" fill="#004972"/>
<path d="M23.206 36.2157L22.4678 35.8718L22.4677 35.8714L22.2451 35.7676L20.4737 36.3581C20.036 36.504 19.9554 37.0884 20.3373 37.3474L21.9716 38.4554L29.1041 43.291L30.0005 42.9378L34.1375 41.3081L23.2059 36.2153L23.206 36.2157Z" fill="#004972"/>
<path d="M33.8037 48.7362V49.5292C33.8037 50.1471 34.4393 50.5608 35.0043 50.3107L50.6856 43.369C50.9948 43.2321 51.1942 42.9257 51.1942 42.5875V42.0666C51.1942 41.4541 50.5688 41.0404 50.0051 41.2801L46.9144 42.5947L44.1386 44.6262C43.4478 45.1324 42.5372 45.2214 41.7606 44.86L41.6784 44.8217L34.3238 47.9497C34.0085 48.0839 33.8037 48.3934 33.8037 48.7362Z" fill="#0A7BA5"/>
<path d="M19.6007 46.1204L17.0411 44.3382V43.8987L16.6072 44.036L16.4226 44.0944C16.3895 44.1049 16.3636 44.1244 16.3453 44.1486C16.2942 44.2161 16.303 44.321 16.384 44.3742L17.0411 44.8053L17.4221 45.0553L19.1975 46.2202L26.8213 51.2225L28.6738 52.438L26.835 51.1577L19.6007 46.1204Z" fill="#004972"/>
</svg>
