<svg width="20" height="18" viewBox="0 0 20 18" fill="none" xmlns="http://www.w3.org/2000/svg">
<path d="M19.75 16.5C19.75 16.6989 19.671 16.8897 19.5303 17.0303C19.3897 17.171 19.1989 17.25 19 17.25H1C0.801088 17.25 0.610322 17.171 0.46967 17.0303C0.329018 16.8897 0.25 16.6989 0.25 16.5C0.25 16.3011 0.329018 16.1103 0.46967 15.9697C0.610322 15.829 0.801088 15.75 1 15.75H19C19.1989 15.75 19.3897 15.829 19.5303 15.9697C19.671 16.1103 19.75 16.3011 19.75 16.5ZM19.75 2.25V12.75C19.75 13.1478 19.592 13.5294 19.3107 13.8107C19.0294 14.092 18.6478 14.25 18.25 14.25H1.75C1.35218 14.25 0.970644 14.092 0.68934 13.8107C0.408035 13.5294 0.25 13.1478 0.25 12.75V2.25C0.25 1.85218 0.408035 1.47064 0.68934 1.18934C0.970644 0.908035 1.35218 0.75 1.75 0.75H18.25C18.6478 0.75 19.0294 0.908035 19.3107 1.18934C19.592 1.47064 19.75 1.85218 19.75 2.25ZM13.375 7.5C13.375 7.37949 13.3459 7.26077 13.2902 7.15388C13.2346 7.04699 13.154 6.95508 13.0553 6.88594L9.30531 4.26094C9.19294 4.18222 9.06113 4.13583 8.92422 4.12683C8.78732 4.11782 8.65057 4.14654 8.52885 4.20987C8.40714 4.27319 8.30513 4.36869 8.23392 4.48596C8.16271 4.60324 8.12504 4.7378 8.125 4.875V10.125C8.12504 10.2622 8.16271 10.3968 8.23392 10.514C8.30513 10.6313 8.40714 10.7268 8.52885 10.7901C8.65057 10.8535 8.78732 10.8822 8.92422 10.8732C9.06113 10.8642 9.19294 10.8178 9.30531 10.7391L13.0553 8.11406C13.154 8.04492 13.2346 7.95301 13.2902 7.84612C13.3459 7.73923 13.375 7.62051 13.375 7.5Z" fill="white"/>
</svg>
